<svg width="488" height="413" viewBox="0 0 488 413" fill="none" xmlns="http://www.w3.org/2000/svg">
<path d="M358.135 59H415.135V28.5C415.135 20.9413 412.132 13.6922 406.787 8.34744C401.443 3.00266 394.193 0 386.635 0C379.076 0 371.827 3.00266 366.482 8.34744C361.137 13.6922 358.135 20.9413 358.135 28.5V59Z" fill="#2F2E41"/>
<path d="M332.69 398.343H320.431L314.598 351.051H332.692L332.69 398.343Z" fill="#FFB6B6"/>
<path d="M335.816 394.34H311.671C307.591 394.34 303.678 395.961 300.793 398.846C297.907 401.731 296.286 405.644 296.285 409.724V410.224H335.816V394.34Z" fill="#2F2E41"/>
<path d="M479.246 381.983L468.57 388.01L440.246 349.699L456.003 340.799L479.246 381.983Z" fill="#FFB6B6"/>
<path d="M479.995 376.959L458.97 388.825C455.417 390.831 452.806 394.167 451.712 398.098C450.618 402.03 451.13 406.234 453.136 409.788L453.382 410.223L487.806 390.79L479.995 376.959Z" fill="#2F2E41"/>
<path d="M400.89 185.672L401.836 190.402C401.836 190.402 404.674 193.24 403.255 194.659C401.836 196.078 402.309 202.701 402.309 202.701C403.103 214.777 418.882 282.637 421.709 295.89C421.709 295.89 443.469 310.081 460.498 337.99C477.527 365.899 477.998 372.995 477.998 372.995L459.08 381.038L411.78 323.8C411.78 323.8 398.535 315.758 393.804 308.663C389.073 301.568 359.74 228.245 359.74 228.245L343.18 304.878C343.18 304.878 344.126 332.787 339.869 350.763C337.252 362.107 335.669 373.665 335.139 385.295L312.906 382.93C312.906 382.93 314.325 315.758 316.69 308.662C316.69 308.662 306.756 226.826 326.624 194.186L342.636 151.499L358.318 145.463L400.89 185.672Z" fill="#2F2E41"/>
<path d="M386.928 7.45508C357.081 7.96508 357.086 52.3621 386.928 52.8671C416.773 52.3571 416.769 7.96008 386.928 7.45508Z" fill="#FFB8B8"/>
<path d="M363.957 28.9822H369.03L370.411 25.5282L369.72 28.9822H397.465L396.565 21.7552L403.309 28.9822H410.036V25.0662C410.04 18.9562 407.617 13.0946 403.3 8.77106C401.162 6.63025 398.624 4.93147 395.83 3.7717C393.035 2.61193 390.04 2.01389 387.015 2.01172C380.904 2.00735 375.043 4.43038 370.719 8.74775C366.396 13.0651 363.964 18.9232 363.96 25.0332V25.0662L363.957 28.9822Z" fill="#2F2E41"/>
<path d="M356.147 66.125L412.547 66.582L400.635 187.499C400.635 187.499 334.676 184.018 334.635 163.885L340.814 145.994L356.147 66.125Z" fill="#3F3D56"/>
<path d="M414.973 199.191C414.106 198.129 413.482 196.89 413.146 195.561C412.81 194.232 412.769 192.846 413.026 191.499C413.284 190.153 413.833 188.879 414.636 187.768C415.439 186.657 416.475 185.736 417.673 185.069L415.222 163.782L427.795 159.137L430.834 189.248C431.815 191.333 431.998 193.706 431.349 195.917C430.7 198.128 429.263 200.025 427.31 201.249C425.358 202.473 423.024 202.94 420.751 202.561C418.478 202.181 416.422 200.983 414.973 199.191Z" fill="#FFB6B6"/>
<path d="M405.135 76.9985L412.556 66.6255C412.556 66.6255 417.635 65.4985 423.635 72.4985C429.635 79.4985 433.135 166.998 433.135 166.998L411.135 171.998L398.135 109.998L405.135 76.9985Z" fill="#3F3D56"/>
<path d="M280.818 171.887L282.454 249.624L332.779 276.224L424.427 259.848L426.678 179.042L368.578 158.584L280.818 171.887Z" fill="white"/>
<path d="M332.648 277.06L281.661 250.115L280 171.199L368.658 157.766L368.847 157.832L427.499 178.485L425.214 260.531L332.648 277.06ZM283.248 249.136L332.91 275.381L423.642 259.181L425.858 179.615L368.501 159.415L281.638 172.577L283.248 249.136Z" fill="#CACACA"/>
<path d="M331.658 192.965L331.458 192.887L280.52 172.634L281.112 171.141L331.854 191.315L426.57 178.249L426.789 179.841L331.658 192.965Z" fill="#CACACA"/>
<path d="M332.562 192.137L330.955 192.156L331.978 276.236L333.585 276.216L332.562 192.137Z" fill="#CACACA"/>
<path d="M325.219 188.941L306.857 181.497L395.252 167.412L413.614 174.855L325.219 188.941Z" fill="#CACACA"/>
<path d="M281.136 194.444L280.5 195.92L301.796 205.089L302.431 203.613L281.136 194.444Z" fill="#CACACA"/>
<path d="M290.78 220.965L290.145 222.441L311.44 231.611L312.076 230.135L290.78 220.965Z" fill="#6C63FF"/>
<path d="M0.818359 279.888L2.45435 357.625L52.7834 384.22L144.431 367.854L146.682 287.048L88.5823 266.59L0.818359 279.888Z" fill="white"/>
<path d="M52.648 385.06L1.66101 358.115L0 279.199L88.658 265.766L88.847 265.832L147.499 286.485L145.214 368.531L52.648 385.06ZM3.24799 357.136L52.91 383.381L143.642 367.181L145.858 287.615L88.501 267.415L1.638 280.577L3.24799 357.136Z" fill="#CACACA"/>
<path d="M51.6575 300.965L51.4576 300.887L0.519531 280.634L1.11255 279.141L51.8546 299.315L146.57 286.249L146.79 287.841L51.6575 300.965Z" fill="#CACACA"/>
<path d="M52.56 300.135L50.9531 300.154L51.976 384.234L53.5829 384.215L52.56 300.135Z" fill="#CACACA"/>
<path d="M40.7714 295.111L26.8574 289.497L115.252 275.412L129.165 281.026L40.7714 295.111Z" fill="#CACACA"/>
<path d="M1.13551 302.442L0.5 303.918L21.7959 313.087L22.4314 311.611L1.13551 302.442Z" fill="#CACACA"/>
<path d="M10.7781 328.963L10.1426 330.439L31.4385 339.609L32.074 338.133L10.7781 328.963Z" fill="#6C63FF"/>
<path d="M88.2461 290.548L90.1461 380.789L148.565 411.661L254.954 392.661L257.566 298.861L190.123 275.109L88.2461 290.548Z" fill="#6C63FF"/>
<path d="M148.414 412.633L89.2259 381.355L87.2969 289.746L190.215 274.152L190.434 274.229L258.518 298.203L255.866 393.445L148.414 412.633ZM91.0679 380.218L148.718 410.684L254.047 391.875L256.619 299.511L190.037 276.066L89.1979 291.345L91.0679 380.218Z" fill="#3F3D56"/>
<path d="M147.262 315.013L147.034 314.922L87.9023 291.412L88.5914 289.678L147.491 313.097L257.436 297.933L257.691 299.781L147.262 315.013Z" fill="#3F3D56"/>
<path d="M148.311 314.048L146.445 314.07L147.633 411.673L149.499 411.65L148.311 314.048Z" fill="#3F3D56"/>
<path d="M135.573 308.26L118.473 301.701L221.085 285.348L238.185 291.907L135.573 308.26Z" fill="#3F3D56"/>
<path d="M88.6149 316.728L87.877 318.441L112.599 329.086L113.337 327.372L88.6149 316.728Z" fill="#3F3D56"/>
<path d="M99.8083 347.513L99.0703 349.227L123.792 359.871L124.53 358.157L99.8083 347.513Z" fill="white"/>
<path d="M309.346 184.742C310.587 184.16 311.685 183.312 312.563 182.26C313.44 181.207 314.077 179.975 314.427 178.649C314.777 177.324 314.833 175.938 314.589 174.589C314.346 173.241 313.81 171.961 313.019 170.842L324.441 152.712L315.117 143.084L299.346 168.913C297.554 170.367 296.358 172.428 295.984 174.705C295.61 176.982 296.084 179.318 297.317 181.269C298.549 183.22 300.454 184.651 302.671 185.291C304.888 185.931 307.263 185.735 309.346 184.742Z" fill="#FFB6B6"/>
<path d="M364.817 70.89L356.634 65.498C356.634 65.498 350.319 66.914 343.603 79.832C336.887 92.75 309.803 150.504 309.803 150.504L320.936 161.804L350.636 116.495L364.817 70.89Z" fill="#3F3D56"/>
</svg>
