<svg width="285" height="500" viewBox="0 0 285 500" fill="none" xmlns="http://www.w3.org/2000/svg">
<path d="M57.5363 53.4721L48.9794 15.4595L46.1875 3.0761C45.956 2.05452 45.3285 1.16682 44.443 0.608293C43.5576 0.0497623 42.4867 -0.133855 41.466 0.0978372L37.2499 1.05228L3.43909 8.68711C2.9343 8.80089 2.45688 9.01312 2.03409 9.31167C1.6113 9.61023 1.25144 9.98925 0.975083 10.4271C0.69873 10.8649 0.511285 11.353 0.42349 11.8633C0.335694 12.3737 0.349263 12.8964 0.463407 13.4015C-1.35193 30.3153 2.23542 45.9167 10.01 60.5203C10.5843 61.6127 11.1914 62.7051 11.8254 63.7975C11.9929 64.553 12.3813 65.2415 12.9411 65.7753C13.4118 66.2255 13.9864 66.5523 14.6137 66.7268C15.241 66.9014 15.9016 66.9181 16.537 66.7757L20.9716 65.7753L23.7058 65.1545L54.558 58.1864C55.0627 58.0726 55.5401 57.8603 55.9628 57.5617C56.3855 57.2631 56.7453 56.8841 57.0216 56.4463C57.2979 56.0085 57.4853 55.5204 57.573 55.0101C57.6608 54.4998 57.6472 53.9771 57.533 53.4721H57.5363Z" fill="#E6E6E6"/>
<path d="M53.9978 51.3571L45.8412 15.1956L43.8881 6.51434C43.6728 5.55855 43.0872 4.72741 42.26 4.20356C41.4327 3.67971 40.4315 3.50602 39.4764 3.72066L36.8801 4.30725L6.79309 11.1026C5.83813 11.318 5.00772 11.9041 4.48432 12.7321C3.96093 13.5601 3.78738 14.5621 4.00183 15.5181C4.26435 28.6831 5.64259 40.6297 11.3085 47.9197C11.9531 50.7551 13.3365 53.3691 15.3181 55.4958C17.2996 57.6224 19.8085 59.1859 22.5897 60.0272C22.6553 60.0502 22.7157 60.0731 22.7866 60.0929C22.8325 60.1047 22.8903 60.1277 22.9362 60.1388C25.5541 60.876 28.3145 60.9472 30.9668 60.3457L51.2085 55.7693C52.1624 55.5534 52.9918 54.9676 53.5147 54.1405C54.0376 53.3133 54.2113 52.3123 53.9978 51.3571Z" fill="white"/>
<path d="M24.0225 23.1598C24.6884 22.3903 25.5853 21.8573 26.5791 21.6405C27.5728 21.4237 28.61 21.5347 29.5355 21.957C31.5431 22.9607 32.3221 25.0962 32.0012 27.2199C31.6429 29.5919 30.4051 31.7523 30.2948 34.1828C30.1964 36.3084 30.9879 38.5418 32.8701 39.686C34.2195 40.5065 35.6083 38.4754 34.2523 37.6497C32.0209 36.2933 32.7711 33.3144 33.4182 31.2781C34.2261 28.7386 35.0681 26.1499 34.0686 23.5335C33.626 22.438 32.9161 21.471 32.0037 20.7211C31.0913 19.9711 30.0056 19.462 28.8459 19.2405C27.6862 19.019 26.4895 19.0921 25.3652 19.453C24.241 19.814 23.2252 20.4513 22.4106 21.3067C21.3461 22.4556 22.9488 24.3283 24.0271 23.1617L24.0225 23.1598Z" fill="#6C63FF"/>
<path d="M34.8537 46.7761C36.2119 46.7761 37.3129 45.6742 37.3129 44.3148C37.3129 42.9555 36.2119 41.8535 34.8537 41.8535C33.4955 41.8535 32.3945 42.9555 32.3945 44.3148C32.3945 45.6742 33.4955 46.7761 34.8537 46.7761Z" fill="#6C63FF"/>
<path d="M189.615 475.717L150.687 475.485L138.004 475.41C135.825 475.399 134.038 476.228 134.014 477.263L133.963 479.315L133.536 495.767C133.503 496.795 135.247 497.649 137.426 497.661C153.305 500.26 169.479 500.523 185.434 498.44C186.629 498.295 187.831 498.135 189.04 497.962C189.778 497.973 190.513 497.873 191.221 497.665C192.297 497.333 193.009 496.763 193.028 496.115L193.085 493.957L193.116 492.626L193.506 477.61C193.53 476.576 191.783 475.727 189.615 475.717Z" fill="#E6E6E6"/>
<path d="M186.738 477.118L149.702 476.904L140.812 476.85C138.778 476.838 137.098 477.612 137.071 478.579L137.038 479.842L136.662 494.488C136.637 495.455 138.268 496.251 140.306 496.262C153.161 497.589 165.092 498.268 173.491 496.455C179.605 496.486 184.997 494.921 187.876 492.579C187.914 492.55 187.95 492.526 187.988 492.496C188.01 492.477 188.046 492.452 188.067 492.431C188.653 491.998 189.14 491.446 189.497 490.811C189.853 490.175 190.069 489.471 190.132 488.746L190.383 478.893C190.408 477.926 188.776 477.13 186.738 477.118Z" fill="white"/>
<path d="M152.378 487.854C151.243 487.046 151.124 485.949 152.488 485.177C153.932 484.361 156.186 484.236 158.175 484.617C160.397 485.044 162.209 485.854 164.541 486.173C166.584 486.452 168.939 486.332 170.487 485.59C171.598 485.057 169.946 484.192 168.83 484.727C166.993 485.608 164.27 484.933 162.444 484.411C160.164 483.758 157.844 483.084 155.069 483.258C150.02 483.574 147.386 486.397 150.199 488.396C151.07 489.016 153.259 488.482 152.378 487.854Z" fill="#E6E6E6"/>
<path d="M175.451 486.352C176.81 486.352 177.911 485.83 177.911 485.185C177.911 484.54 176.81 484.018 175.451 484.018C174.093 484.018 172.992 484.54 172.992 485.185C172.992 485.83 174.093 486.352 175.451 486.352Z" fill="#E6E6E6"/>
<path d="M2.20571 190.466C-1.17688 176.247 -0.612458 162.243 5.17943 148.522C5.24063 147.673 5.63575 146.883 6.27813 146.325C6.9205 145.768 7.75768 145.488 8.606 145.547L40.2556 147.795C41.1039 147.856 41.8933 148.251 42.4505 148.894C43.0078 149.537 43.2874 150.375 43.228 151.224L40.251 193.168C40.19 194.017 39.7949 194.807 39.1525 195.365C38.5101 195.923 37.6728 196.203 36.8245 196.143L5.17484 193.895C4.3266 193.834 3.53721 193.439 2.97994 192.796C2.42267 192.153 2.14306 191.315 2.20244 190.466H2.20571Z" fill="#F2F2F2"/>
<path d="M5.53185 177.969C2.82459 170.962 4.55594 161.326 7.44368 151.004C7.50101 150.209 7.871 149.469 8.47252 148.947C9.07404 148.425 9.85796 148.163 10.6523 148.218L37.8522 150.15C38.6466 150.207 39.3858 150.578 39.9078 151.18C40.4297 151.782 40.6917 152.566 40.6363 153.362L37.9894 190.686C37.9321 191.481 37.5621 192.22 36.9605 192.743C36.359 193.265 35.5751 193.527 34.7807 193.472L17.9307 192.275C14.3927 192.019 11.1004 190.37 8.77601 187.688C6.4516 185.006 5.2849 181.511 5.53185 177.969Z" fill="white"/>
<path d="M24.3637 179.798L21.8697 179.369C22.2523 178.465 22.4732 177.501 22.5221 176.52C22.9158 171.27 22.9552 165.97 23.1646 160.71C23.1593 160.518 23.0985 160.331 22.9894 160.172C22.8804 160.014 22.7278 159.89 22.55 159.816C22.3723 159.742 22.177 159.722 21.9878 159.757C21.7985 159.792 21.6235 159.881 21.4838 160.013L15.224 165.203C14.2474 166.012 15.6466 167.4 16.616 166.596L21.109 162.871L20.6969 173.211C20.6312 174.865 20.8321 176.874 20.1554 178.429C20.0629 178.639 19.9421 178.835 19.7964 179.012L17.04 178.538C16.3784 178.424 15.5377 178.976 15.8291 179.75C16.4624 181.431 18.3289 181.962 19.929 181.314C20.07 181.25 20.2064 181.177 20.3372 181.095L23.8412 181.697C25.0797 181.911 25.6119 180.012 24.3637 179.798Z" fill="#F2F2F2"/>
<path d="M117.059 194.405C113.677 180.187 114.241 166.182 120.033 152.461C120.094 151.612 120.489 150.822 121.131 150.265C121.774 149.707 122.611 149.427 123.459 149.486L155.109 151.734C155.957 151.795 156.747 152.191 157.304 152.834C157.861 153.477 158.141 154.315 158.082 155.164L155.105 197.108C155.044 197.957 154.648 198.747 154.006 199.305C153.364 199.862 152.526 200.142 151.678 200.083L120.028 197.835C119.181 197.773 118.392 197.377 117.836 196.734C117.279 196.091 117 195.254 117.059 194.405Z" fill="#F2F2F2"/>
<path d="M120.385 181.911C117.678 174.904 119.409 165.268 122.297 154.945C122.355 154.151 122.725 153.411 123.326 152.889C123.928 152.366 124.711 152.104 125.506 152.16L152.706 154.091C153.5 154.149 154.239 154.519 154.761 155.121C155.283 155.723 155.545 156.508 155.49 157.303L152.843 194.627C152.786 195.422 152.416 196.162 151.814 196.684C151.213 197.206 150.429 197.468 149.634 197.413L132.784 196.216C129.246 195.961 125.954 194.311 123.63 191.629C121.305 188.947 120.138 185.452 120.385 181.911Z" fill="white"/>
<path d="M138.142 174.794C138.503 174.625 138.845 174.417 139.162 174.175C140.006 173.478 140.629 172.552 140.957 171.509C141.285 170.465 141.303 169.348 141.01 168.294C139.733 163.602 134.125 163.573 130.253 164.138C129.006 164.319 129.535 166.218 130.778 166.038C133.387 165.658 137.484 165.349 138.887 168.206C139.207 168.876 139.321 169.626 139.214 170.361C139.107 171.096 138.785 171.783 138.287 172.334C137.693 172.931 136.91 173.304 136.072 173.388C135.26 173.035 134.378 172.87 133.494 172.907C132.581 172.95 132.073 174.278 132.997 174.746C133.815 175.154 134.715 175.366 135.629 175.367C136.386 175.732 137.019 176.314 137.447 177.039C137.875 177.764 138.08 178.599 138.035 179.439C137.947 180.014 137.747 180.566 137.445 181.063C137.143 181.56 136.746 181.992 136.277 182.335C135.808 182.678 135.276 182.925 134.712 183.062C134.147 183.198 133.561 183.222 132.987 183.132C131.75 182.883 131.22 184.782 132.462 185.032C133.311 185.192 134.183 185.179 135.026 184.992C135.869 184.806 136.666 184.451 137.369 183.948C138.071 183.446 138.665 182.806 139.114 182.068C139.562 181.329 139.857 180.508 139.981 179.652C140.059 178.756 139.935 177.853 139.617 177.012C139.298 176.17 138.795 175.411 138.143 174.791L138.142 174.794Z" fill="#F2F2F2"/>
<path d="M178.583 463.388H167.447L162.15 420.398H178.585L178.583 463.388Z" fill="#FFB6B6"/>
<path d="M178.975 475.013H144.732V474.58C144.732 471.043 146.136 467.65 148.635 465.148C151.133 462.647 154.522 461.241 158.057 461.239L164.311 456.49L175.982 461.24H178.971L178.975 475.013Z" fill="#2F2E41"/>
<path d="M229.776 487.034H218.641L213.344 444.045H229.778L229.776 487.034Z" fill="#FFB6B6"/>
<path d="M230.167 498.662H195.924V498.228C195.924 494.691 197.327 491.298 199.826 488.797C202.325 486.295 205.714 484.889 209.248 484.888L215.503 480.139L227.173 484.888H230.163L230.167 498.662Z" fill="#2F2E41"/>
<path d="M92.7725 143.252C93.5374 144.107 94.4788 144.786 95.5317 145.242C96.5846 145.698 97.7238 145.919 98.8705 145.89C100.017 145.862 101.144 145.585 102.173 145.078C103.202 144.571 104.109 143.846 104.831 142.954L142.799 153.768L148.371 143.993L103.181 131.475C101.59 130.371 99.6496 129.889 97.7273 130.121C95.805 130.354 94.0345 131.284 92.7514 132.735C91.4683 134.186 90.7618 136.058 90.7656 137.996C90.7695 139.934 91.4836 141.804 92.7725 143.25V143.252Z" fill="#FFB6B6"/>
<path d="M191.508 233.727L151.557 325.151L146.963 339.602L160.852 441.034L183.272 439.939L183.221 426.933C183.221 426.933 177.886 424.037 183.204 422.466C188.522 420.895 188.298 416.9 183.159 411.014C178.021 405.128 182.919 348.802 182.919 348.802C182.919 348.802 204.076 328.524 201.772 323.226C199.467 317.928 203.746 317.928 203.746 317.928C203.746 317.928 208.307 317.112 208.482 314.893C208.656 312.674 212.036 308.212 212.036 308.212L210.855 464.432H230.199C230.199 464.432 239.042 449.722 237.305 446.557C235.567 443.393 233.136 443.082 237.305 439.296C241.473 435.509 247.591 438.608 244.861 431.475C242.13 424.342 242.831 347.373 242.831 347.373C242.831 347.373 253.595 302.705 246.944 299.675C240.293 296.644 243.6 297.07 247.526 292.915C251.452 288.759 244.794 289.139 248.123 285.993C251.452 282.848 251.586 245.824 251.586 245.824L191.508 233.727Z" fill="#2F2E41"/>
<path d="M254.597 259.464C226.592 259.399 202.565 265.698 174.561 265.633C176.385 252.994 182.764 233.183 184.585 220.544C187.15 202.764 185.161 192.152 187.719 174.373C187.975 172.632 188.225 170.898 188.474 169.158C189.485 162.129 187.063 155.1 191.408 147.678C193.259 144.512 196.337 141.28 201.436 137.943C212.029 139.02 211.845 134.238 222.438 135.315L225.943 142.305C226.389 144.958 227.997 146.686 230.176 147.993C234.658 150.706 241.563 151.652 245.711 155.324C250.922 159.935 250.574 167.312 249.025 174.511C248.474 177.073 247.771 179.608 247.108 181.993C241.773 201.204 248.593 215.861 254.153 233.682C254.678 235.372 249.687 241.906 250.215 243.535C251.113 246.294 254.325 249.726 253.814 251.591C253.181 253.899 252.549 256.071 254.597 259.464Z" fill="#6C63FF"/>
<path d="M249.02 174.51L187.715 174.372L185.746 174.365L113.043 147.631L122.347 147.947L126.665 137.982L128.746 133.193L171.599 147.528L191.406 147.679L228.75 147.955C229.229 147.961 229.702 147.974 230.174 147.994C234.657 150.707 241.561 151.653 245.709 155.325C250.923 159.934 250.572 167.311 249.02 174.51Z" fill="#6C63FF"/>
<path d="M207.141 133.408C218.144 133.408 227.063 124.481 227.063 113.469C227.063 102.456 218.144 93.5293 207.141 93.5293C196.138 93.5293 187.219 102.456 187.219 113.469C187.219 124.481 196.138 133.408 207.141 133.408Z" fill="#FFB6B6"/>
<path d="M204.308 130.608L205.932 135.801C209.53 134.023 219.739 131.557 222.733 128.884C225.726 126.212 228.049 122.526 228.188 118.512C228.262 116.439 227.76 114.348 228.104 112.302C228.493 109.991 229.918 107.987 230.57 105.734C231.181 103.376 230.951 100.879 229.921 98.6726C228.891 96.4661 227.125 94.6879 224.926 93.6438C221.624 92.1915 217.847 92.5987 214.257 92.248C210.667 91.8972 206.663 90.2714 205.652 86.8058C205.274 85.5098 205.317 83.9812 204.161 83.1338C203.58 82.745 202.875 82.5853 202.183 82.6854C201.491 82.7856 200.861 83.1386 200.413 83.6764C200.36 83.7369 200.309 83.7979 200.26 83.8597C197.221 87.6755 191.493 87.9586 188.496 84.11C188.3 83.8586 188.112 83.6013 187.931 83.3381C187.301 83.9284 186.795 84.6378 186.44 85.4253C186.086 86.2127 185.891 87.0627 185.867 87.9259C185.843 88.7892 185.99 89.6487 186.3 90.4547C186.61 91.2607 187.076 91.9972 187.672 92.6217C186.54 92.6222 185.441 92.2409 184.552 91.5393C183.663 90.8377 183.037 89.8567 182.773 88.7547C181.398 90.655 179.987 92.6375 179.545 94.9418C179.104 97.2461 179.924 99.9715 182.035 100.992C183.113 101.418 184.27 101.607 185.427 101.547C179.98 107.996 183.248 107.81 194.279 101.715C199.751 101.819 197.59 106.909 197.661 112.386C200.236 112.139 202.888 111.896 205.324 112.982C206.458 113.46 207.414 114.282 208.057 115.333C209.667 118.1 208.07 120.976 206.655 123.493C205.445 125.644 204.298 128.235 205.302 130.49" fill="#2F2E41"/>
<path d="M168.051 297.765C169.055 297.21 169.926 296.443 170.605 295.517C171.284 294.592 171.753 293.529 171.981 292.404C172.21 291.279 172.191 290.118 171.927 289.001C171.662 287.883 171.158 286.837 170.45 285.934L189.456 251.303L181.178 243.684L158.905 284.983C157.474 286.289 156.572 288.075 156.37 290.002C156.167 291.93 156.678 293.864 157.805 295.44C158.932 297.015 160.598 298.122 162.486 298.551C164.374 298.98 166.354 298.7 168.05 297.765H168.051Z" fill="#FFB6B6"/>
<path d="M214.405 135.82L209.972 215.251L188.629 265.167L174.737 283.605L176.316 275.25L166.741 270.455L165.842 270.008L178.587 237.697L182.433 227.949L184.225 198.606L185.918 170.86C186.21 166.085 187.489 161.423 189.674 157.168C191.859 152.913 194.902 149.159 198.611 146.142L209.243 137.497L214.405 135.82Z" fill="#6C63FF"/>
<path d="M65.2096 135.944C61.827 121.726 62.3914 107.721 68.1833 94.0004C68.2444 93.1514 68.6394 92.3614 69.2819 91.8036C69.9243 91.2459 70.7615 90.966 71.6099 91.0254L103.26 93.2733C104.108 93.3343 104.897 93.7298 105.454 94.3727C106.012 95.0157 106.291 95.8537 106.232 96.7028L103.255 138.647C103.194 139.496 102.799 140.286 102.156 140.844C101.514 141.401 100.677 141.681 99.8284 141.622L68.1787 139.374C67.3305 139.313 66.5411 138.917 65.9838 138.274C65.4266 137.631 65.147 136.793 65.2064 135.944H65.2096Z" fill="#F2F2F2"/>
<path d="M68.5377 123.448C65.8304 116.441 67.5618 106.805 70.4495 96.4826C70.5069 95.6876 70.8769 94.9479 71.4784 94.4257C72.0799 93.9034 72.8638 93.6413 73.6582 93.6968L100.858 95.6286C101.652 95.6858 102.392 96.0561 102.914 96.6582C103.436 97.2602 103.698 98.0449 103.642 98.8401L100.995 136.164C100.938 136.959 100.568 137.699 99.9664 138.221C99.3648 138.743 98.581 139.006 97.7866 138.95L80.9366 137.753C77.3986 137.498 74.1063 135.848 71.7819 133.166C69.4575 130.485 68.2908 126.99 68.5377 123.448Z" fill="white"/>
<path d="M85.2641 104.665C82.4761 103.697 79.3751 105.903 79.0587 108.765C78.7004 112.008 82.1854 114.569 85.2031 113.687C86.4172 113.332 85.9007 111.43 84.678 111.787C82.4663 112.433 80.1069 110.043 81.3781 107.905C81.667 107.389 82.1061 106.974 82.6368 106.714C83.1676 106.454 83.7649 106.362 84.3492 106.45C84.8452 106.588 85.3021 106.84 85.6833 107.186C86.0644 107.532 86.3591 107.963 86.5439 108.444C87.6294 110.891 86.3391 113.377 84.6301 115.156C83.6555 116.171 82.5115 116.959 81.4608 117.884C80.9499 118.27 80.5256 118.759 80.2152 119.32C79.9048 119.88 79.7152 120.5 79.6586 121.138C79.6865 121.856 79.9099 122.552 80.3045 123.152C80.6992 123.752 81.2502 124.233 81.8979 124.542C83.5767 125.406 85.4859 125.133 87.2717 124.843C88.5187 124.642 87.9897 122.741 86.7467 122.943C85.1847 123.195 82.8462 123.576 81.8565 121.946C81.0093 120.55 82.755 119.324 83.7067 118.582C86.0976 116.716 88.5161 114.306 88.8751 111.133C89.1724 108.534 87.8525 105.564 85.2641 104.665Z" fill="#6C63FF"/>
<path d="M249.396 488.617C249.701 488.631 250.003 488.551 250.261 488.388C250.519 488.224 250.721 487.985 250.838 487.703C250.956 487.421 250.985 487.11 250.92 486.811C250.855 486.512 250.7 486.241 250.475 486.034L250.373 485.628L250.414 485.53C250.721 484.804 251.236 484.184 251.894 483.75C252.552 483.315 253.323 483.085 254.111 483.088C254.9 483.091 255.669 483.327 256.324 483.767C256.979 484.206 257.489 484.829 257.791 485.558C258.998 488.467 260.534 491.38 260.912 494.456C261.079 495.815 261.009 497.193 260.705 498.529C263.539 492.341 265.011 485.616 265.02 478.809C265.021 477.1 264.926 475.394 264.736 473.696C264.579 472.304 264.361 470.923 264.083 469.551C262.564 462.108 259.303 455.132 254.567 449.195C252.274 447.942 250.42 446.017 249.255 443.677C248.833 442.836 248.534 441.939 248.369 441.013C248.628 441.047 249.344 437.105 249.149 436.863C249.509 436.316 250.154 436.044 250.547 435.51C252.504 432.854 255.201 433.318 256.609 436.927C259.616 438.446 259.646 440.965 257.8 443.389C256.626 444.93 256.465 447.016 255.438 448.667C255.543 448.803 255.653 448.934 255.76 449.07C257.697 451.563 259.385 454.241 260.801 457.063C260.457 453.901 260.867 450.702 261.999 447.729C263.146 444.959 265.297 442.626 267.191 440.231C267.691 439.588 268.372 439.107 269.145 438.851C269.919 438.594 270.751 438.573 271.537 438.79C272.322 439.007 273.026 439.452 273.559 440.069C274.092 440.686 274.43 441.447 274.531 442.256L274.542 442.362C274.261 442.521 273.985 442.69 273.716 442.868C273.378 443.094 273.116 443.417 272.964 443.795C272.813 444.173 272.779 444.588 272.867 444.986C272.955 445.383 273.161 445.745 273.457 446.023C273.754 446.302 274.128 446.484 274.53 446.546L274.571 446.553C274.471 447.567 274.294 448.573 274.042 449.561C276.47 458.964 271.226 462.389 263.738 462.543C263.572 462.628 263.41 462.713 263.246 462.793C264.668 466.827 265.56 471.029 265.9 475.292C266.092 477.807 266.08 480.333 265.866 482.846L265.878 482.757C266.421 479.962 267.911 477.44 270.096 475.617C273.342 472.948 277.928 471.965 281.429 469.821C281.801 469.582 282.234 469.454 282.676 469.453C283.118 469.452 283.552 469.577 283.925 469.815C284.298 470.052 284.596 470.391 284.783 470.792C284.97 471.193 285.038 471.639 284.98 472.078L284.966 472.172C284.444 472.385 283.936 472.63 283.444 472.906C283.163 473.065 282.887 473.233 282.618 473.412C282.28 473.638 282.018 473.961 281.866 474.339C281.715 474.717 281.681 475.132 281.769 475.53C281.857 475.927 282.063 476.289 282.359 476.567C282.656 476.846 283.03 477.028 283.432 477.09L283.474 477.097L283.558 477.109C282.666 479.241 281.415 481.202 279.858 482.909C278.339 491.12 271.814 491.897 264.835 489.506H264.831C264.065 492.837 262.956 496.079 261.521 499.18H249.692C249.649 499.048 249.611 498.912 249.573 498.781C250.668 498.849 251.766 498.783 252.845 498.584C251.968 497.506 251.09 496.42 250.213 495.342C250.193 495.321 250.175 495.299 250.158 495.276C249.713 494.725 249.263 494.177 248.818 493.626C248.794 491.936 248.988 490.249 249.395 488.608L249.396 488.617Z" fill="#F2F2F2"/>
<path d="M117.117 499.219C117.117 499.322 117.137 499.424 117.176 499.519C117.215 499.614 117.273 499.7 117.345 499.773C117.418 499.845 117.504 499.903 117.599 499.942C117.694 499.981 117.796 500.001 117.898 500.001H284.134C284.341 500.001 284.54 499.918 284.686 499.772C284.833 499.625 284.915 499.426 284.915 499.219C284.915 499.012 284.833 498.813 284.686 498.666C284.54 498.52 284.341 498.438 284.134 498.438H117.898C117.796 498.437 117.694 498.457 117.599 498.496C117.504 498.536 117.418 498.593 117.345 498.666C117.273 498.739 117.215 498.825 117.176 498.92C117.137 499.015 117.117 499.116 117.117 499.219Z" fill="#CCCCCC"/>
<path d="M33.4289 67.3504C32.6079 79.4979 33.0023 93.285 42.4236 102.296C44.6314 104.427 47.2678 106.061 50.1568 107.091C51.3539 107.514 51.8691 105.611 50.6819 105.191C45.8416 103.483 42.0344 99.7309 39.4971 95.343C36.5228 90.1997 35.388 84.2662 35.1399 78.3852C35.0256 74.7047 35.1132 71.0206 35.4024 67.3497C35.4878 66.0839 33.5188 66.0892 33.4335 67.3497L33.4289 67.3504Z" fill="#3F3D56"/>
<path d="M48.1057 95.1498C50.4408 96.2356 52.8888 97.3405 54.7343 99.1869C56.4197 100.871 57.5965 103.325 56.9133 105.729C55.7929 109.67 50.8044 111.153 47.326 112.092C47.0742 112.162 46.8604 112.328 46.7316 112.556C46.6028 112.783 46.5695 113.053 46.6392 113.305C46.7088 113.557 46.8756 113.771 47.1028 113.9C47.3301 114.029 47.5992 114.062 47.851 113.992C51.3498 113.048 55.2732 111.728 57.5591 108.73C60.2637 105.183 58.98 100.506 55.9413 97.6124C53.9842 95.7482 51.5217 94.5757 49.0986 93.4491C47.9567 92.9184 46.9558 94.6164 48.105 95.1504L48.1057 95.1498Z" fill="#3F3D56"/>
</svg>
