<svg width="394" height="257" viewBox="0 0 394 257" fill="none" xmlns="http://www.w3.org/2000/svg">
<g clip-path="url(#clip0_23_1774)">
<path d="M363.523 124.099H44.0326C39.7501 124.099 36.2661 120.629 36.2661 116.363V7.73535C36.2661 3.47006 39.7501 0 44.0326 0H363.523C367.806 0 371.29 3.47006 371.29 7.73535V116.363C371.29 120.629 367.806 124.099 363.523 124.099ZM44.0326 0.922226C40.2608 0.922226 37.192 3.97868 37.192 7.73535V116.363C37.192 120.12 40.2608 123.177 44.0326 123.177H363.523C367.295 123.177 370.364 120.12 370.364 116.363V7.73535C370.364 3.97868 367.295 0.922226 363.523 0.922226H44.0326Z" fill="#3F3D56"/>
<path d="M394 253.869H0V254.645H394V253.869Z" fill="#D9D9D9"/>
<path d="M394 214.213H0V214.989H394V214.213Z" fill="#D9D9D9"/>
<path d="M179.557 128.094C179.84 131.635 181.904 134.36 184.167 134.181C186.429 134.001 188.034 130.985 187.75 127.442C187.656 126.025 187.223 124.652 186.487 123.436L185.098 108.446L178.05 109.245L180.167 123.938C179.634 125.255 179.424 126.68 179.557 128.094Z" fill="#FFB6B6"/>
<path d="M171.137 58.1617C171.137 58.1617 177.726 54.6877 181.067 59.8791C184.408 65.0706 186.713 121.217 186.713 121.217L177.453 122.202L175.698 82.6369L171.137 58.1617V58.1617Z" fill="#D9D9D9"/>
<path d="M157.461 211.284L162.826 211.284L165.378 190.674L157.46 190.675L157.461 211.284Z" fill="#FFB6B6"/>
<path d="M175.841 211.163C176.008 211.443 176.096 212.347 176.096 212.673C176.096 213.675 175.281 214.487 174.275 214.487H157.662C156.976 214.487 156.42 213.933 156.42 213.25V212.561C156.42 212.561 155.598 210.49 157.29 207.938C157.29 207.938 159.393 209.936 162.535 206.807L163.462 205.135L170.17 210.021L173.888 210.476C174.701 210.576 175.422 210.461 175.841 211.163H175.841H175.841Z" fill="#2F2E41"/>
<path d="M188.505 210.4L193.703 209.077L191.054 188.479L183.383 190.432L188.505 210.4Z" fill="#FFB6B6"/>
<path d="M206.283 205.751C206.514 205.982 206.824 206.836 206.905 207.152C207.154 208.122 206.566 209.11 205.592 209.358L189.495 213.453C188.831 213.622 188.154 213.223 187.984 212.561L187.813 211.893C187.813 211.893 186.503 210.09 187.508 207.2C187.508 207.2 190.042 208.618 192.309 204.81L192.791 202.962L200.504 206.043L204.22 205.568C205.033 205.464 205.703 205.174 206.283 205.751H206.283Z" fill="#2F2E41"/>
<path d="M153.023 53.7313L152.769 51.8929L155.792 44.539L164.098 43.6198L165.891 54.1477L153.023 53.7313Z" fill="#FFB6B6"/>
<path opacity="0.1" d="M153.023 53.7313L152.769 51.8929L155.792 44.539L164.098 43.6198L165.891 54.1477L153.023 53.7313Z" fill="black"/>
<path d="M143.332 105.668L139.641 115.779L142.409 121.295L156.253 201.267H165.457L163.637 130.487L184.864 201.267H193.973L186.648 153.467L181.172 109.345L177.851 107.301L161.791 98.3138L143.332 105.668Z" fill="#2F2E41"/>
<path d="M166.867 112.562L161.329 113.481L153.946 96.0158H170.558L166.867 112.562Z" fill="#D9D9D9"/>
<path d="M177.942 107.966L166.867 112.562L163.175 104.289L161.329 113.481L141.948 107.267L144.717 96.0158L141.948 59.2467L151.722 52.7569L153.023 51.8929L165.021 52.8121L166.073 53.382L173.327 57.4082L175.173 87.7427L177.942 107.966Z" fill="#2F2E41"/>
<path d="M166.073 53.382L160.868 75.3332L151.722 52.7569L153.023 51.8929L165.021 52.8121L166.073 53.382Z" fill="#D9D9D9"/>
<path d="M157.176 51.8929L155.33 55.0591L157.176 56.1145L156.253 75.3903L159.945 80.3889L163.636 73.001L160.868 56.1145L161.791 51.8929H157.176Z" fill="#2F2E41"/>
<path d="M159.945 50.0544C164.787 50.0544 168.713 46.1447 168.713 41.3218C168.713 36.4988 164.787 32.5891 159.945 32.5891C155.103 32.5891 151.177 36.4988 151.177 41.3218C151.177 46.1447 155.103 50.0544 159.945 50.0544Z" fill="#FFB6B6"/>
<path d="M154.342 42.0878L156.236 42.9112L157.063 37.9704C157.063 37.9704 160.37 36.3234 162.85 37.1469C165.331 37.9704 169.464 37.1469 169.464 37.1469C169.464 37.1469 169.465 28.9122 163.677 28.9122C157.89 28.9122 152.102 29.7356 152.102 32.2061C152.102 34.6765 149.622 37.1469 149.622 37.1469C149.622 37.1469 146.315 42.0878 149.622 45.3817C152.929 48.6756 154.582 48.6756 154.582 48.6756L154.342 42.0878Z" fill="#2F2E41"/>
<path d="M137.329 127.835C137.233 131.387 138.995 134.315 141.264 134.375C143.533 134.436 145.45 131.606 145.545 128.054C145.603 126.635 145.319 125.223 144.717 123.937L144.933 108.885L137.839 108.934L138.379 123.767C137.708 125.02 137.348 126.415 137.329 127.835V127.835Z" fill="#FFB6B6"/>
<path d="M146.106 57.391C146.106 57.391 140.107 55.5525 137.338 61.0679C134.569 66.5833 138.261 122.656 138.261 122.656H147.574L145.102 83.1293L146.106 57.391V57.391Z" fill="#D9D9D9"/>
<path d="M376.233 161.855L353.862 155.034C353.367 154.883 352.848 154.828 352.332 154.871L238.951 164.482C237.334 164.619 236.928 166.791 238.386 167.499L242.018 169.261H241.921V253.622H245.343V170.875L256.726 176.398C257.597 176.82 258.569 176.993 259.532 176.896L260.744 176.774V253.622H264.166V176.43L351.861 167.607V253.622H355.283V167.263L369.827 165.799V253.622H373.25V165.455L375.903 165.188C377.766 165.001 378.023 162.4 376.233 161.855H376.233Z" fill="#3F3D56"/>
<path d="M271.866 164.148C274.005 164.148 305.66 160.314 305.66 160.314L310.366 166.705L277.427 173.096L271.866 164.148Z" fill="white"/>
<path d="M306.608 250.346L301.109 250.336L298.529 229.203L306.646 229.217L306.608 250.346Z" fill="#A0616A"/>
<path d="M287.766 250.19C287.594 250.477 287.502 251.403 287.501 251.738C287.5 252.764 288.334 253.598 289.365 253.6L306.397 253.629C307.1 253.63 307.671 253.063 307.673 252.363L307.674 251.657C307.674 251.657 308.52 249.535 306.79 246.916C306.79 246.916 304.63 248.961 301.414 245.747L300.467 244.031L293.582 249.029L289.769 249.489C288.935 249.59 288.196 249.471 287.766 250.19H287.766L287.766 250.19Z" fill="#2F2E41"/>
<path d="M336.126 240.519L331.787 243.778L317.097 228.66L323.501 223.849L336.126 240.519Z" fill="#A0616A"/>
<path d="M321.186 251.59C321.222 251.918 321.705 252.703 321.905 252.967C322.518 253.777 323.675 253.938 324.488 253.327L337.926 243.231C338.48 242.814 338.591 242.028 338.172 241.476L337.75 240.918C337.75 240.918 337.147 238.744 334.215 237.708C334.215 237.708 333.738 240.603 329.279 239.981L327.505 239.192L325.073 247.22L322.345 249.848C321.748 250.423 321.094 250.768 321.186 251.59L321.186 251.59Z" fill="#2F2E41"/>
<path d="M324.632 131.297C324.632 136.349 320.52 140.444 315.449 140.444C310.377 140.444 306.266 136.349 306.266 131.297C306.266 126.246 310.377 122.151 315.449 122.151C320.52 122.151 324.632 126.246 324.632 131.297Z" fill="#A0616A"/>
<path d="M323.767 184.033C323.767 184.033 289.956 182.127 288.042 185.94C286.128 189.752 298.388 242.119 298.388 242.119L309.326 239.835L303.99 203.095C303.99 203.095 332.205 210.538 336.033 201.642C339.861 192.747 338.759 189.434 338.759 189.434L323.767 184.033Z" fill="#2F2E41"/>
<path d="M332.429 177.634C332.429 177.634 299.316 184.704 298.483 188.885C297.65 193.066 323.382 240.337 323.382 240.337L333.324 235.253L318.42 201.227C318.42 201.227 347.607 200.971 348.935 191.384C350.264 181.797 348.322 178.893 348.322 178.893L332.429 177.634Z" fill="#2F2E41"/>
<path d="M336.207 141.78H320.298L309.413 159.571C309.413 159.571 306.861 171.068 309.413 172.309C311.965 173.549 311.965 186.893 311.965 186.893L338.759 189.434C338.759 189.434 342.586 149.404 341.31 145.592C340.034 141.78 336.207 141.78 336.207 141.78Z" fill="#FFB6B6"/>
<path d="M311.008 153.534L309.413 172.309L291.474 164.726L287.193 162.581C286.354 161.492 285.266 160.619 284.019 160.034C280.918 158.529 277.627 158.902 276.665 160.867C275.704 162.831 277.437 165.644 280.537 167.148C281.768 167.766 283.129 168.082 284.508 168.068L297.034 175.155L297.049 175.127L297.105 175.226L316.749 183.398L321.269 158.752L311.008 153.534H311.008Z" fill="#A0616A"/>
<path d="M309.094 132.566C309.094 132.566 299.525 133.837 303.352 125.577C303.352 125.577 302.769 121.099 305.612 120.796C308.456 120.494 312.284 115.411 312.284 115.411C312.284 115.411 321.059 110.963 325.603 115.411C330.146 119.858 343.543 145.91 343.543 145.91L334.612 155.441C334.612 155.441 329.243 141.382 322.996 143.01C316.749 144.639 311.008 149.494 311.008 149.494C311.008 149.494 304.669 146.335 307.519 143.581C310.37 140.826 309.094 132.566 309.094 132.566Z" fill="#2F2E41"/>
<path d="M321.853 146.545C321.853 146.545 317.387 140.826 314.198 145.274C311.008 149.722 308.456 155.441 308.456 155.441L321.215 159.888L321.853 146.545H321.853Z" fill="#FFB6B6"/>
<path d="M370.297 252.358L355.473 205.43L355.475 205.43H355.51L355.45 205.353L355.448 205.351L354.393 202.009L354.393 202.009C356.001 200.628 357.097 198.655 357.315 196.384L350.539 159.265C351.005 154.391 347.253 150.13 342.338 149.956L327.049 149.917C322.703 149.764 318.939 152.891 318.306 157.178L317.968 159.453L313.283 191.191C313.112 192.332 313.181 193.457 313.45 194.51L310.079 194.949L309.057 195.085L305.014 195.609L305.002 195.613L304.497 195.677H303.949V209.311H303.983V252.89C303.983 253.171 304.214 253.401 304.497 253.401C304.783 253.401 305.014 253.171 305.014 252.89V209.311H311.012L316.997 252.838C317.035 253.094 317.253 253.282 317.51 253.282C317.531 253.282 317.557 253.282 317.578 253.277C317.861 253.239 318.057 252.979 318.019 252.698L312.056 209.311H340.832C343.69 209.311 346.337 208.408 348.493 206.862L359.903 252.759C359.962 252.991 360.172 253.145 360.402 253.145C360.444 253.145 360.487 253.14 360.529 253.129C360.805 253.059 360.972 252.78 360.902 252.505L349.382 206.165C349.535 206.038 349.688 205.902 349.833 205.762L354.413 205.494L369.314 252.666C369.383 252.885 369.586 253.025 369.805 253.025C369.856 253.025 369.909 253.017 369.96 253.001C370.231 252.916 370.382 252.628 370.297 252.358ZM353.413 202.737C353.452 202.716 353.486 202.69 353.52 202.669L353.521 202.669L353.631 203.017L353.413 202.737Z" fill="#D9D9D9"/>
<path d="M79.4292 172.814L89.4057 166.495L93.4616 168.931L79.4292 184.991V172.814Z" fill="#FFB6B6"/>
<path d="M65.7863 148.355C65.7863 148.355 59.1599 149.908 62.2782 158.837C65.3965 167.767 75.5311 186.402 78.6494 185.237C81.7677 184.072 82.1575 172.425 82.1575 172.425C82.1575 172.425 81.7677 172.814 80.2086 171.261C78.6494 169.708 78.6494 170.417 78.6494 168.704C78.6494 166.99 77.3741 165.72 77.3741 165.72L75.9209 162.72C75.9209 162.72 75.9209 148.743 70.074 147.967C64.2272 147.19 65.7863 148.355 65.7863 148.355L65.7863 148.355Z" fill="#D9D9D9"/>
<path d="M96.7452 168.514C99.3329 165.936 100.135 162.556 98.5367 160.965C96.9384 159.373 93.5449 160.171 90.9571 162.749C88.3693 165.326 87.5672 168.706 89.1655 170.298C90.7639 171.89 94.1574 171.091 96.7452 168.514Z" fill="#FFB6B6"/>
<path d="M39.9766 199.796L46.7841 211.018L86.4553 208.68L75.8919 195.12L39.9766 199.796Z" fill="#D9D9D9"/>
<path d="M51.8302 252.284C51.5991 252.284 51.3979 252.114 51.3657 251.88L39.5112 165.649C39.476 165.393 39.6558 165.157 39.9126 165.122C40.1694 165.085 40.4062 165.266 40.4415 165.522L52.2959 251.753C52.3311 252.009 52.1514 252.245 51.8945 252.28C51.8729 252.283 51.8514 252.284 51.8302 252.284Z" fill="#D9D9D9"/>
<path d="M39.9763 252.394C39.717 252.394 39.5068 252.184 39.5068 251.926V165.602C39.5068 165.344 39.717 165.134 39.9763 165.134C40.2356 165.134 40.4458 165.344 40.4458 165.602V251.926C40.4458 252.184 40.2356 252.394 39.9763 252.394Z" fill="#D9D9D9"/>
<path d="M99.4829 252.051C99.2834 252.051 99.0983 251.923 99.0352 251.723L70.9837 162.92C70.9059 162.674 71.0433 162.411 71.2906 162.333C71.5379 162.256 71.8016 162.393 71.8793 162.639L99.9309 251.442C100.009 251.689 99.8713 251.951 99.6239 252.029C99.577 252.044 99.5296 252.051 99.4829 252.051Z" fill="#D9D9D9"/>
<path d="M90.9147 252.16C90.7051 252.16 90.5141 252.019 90.46 251.808L70.9765 173.433C70.9126 173.182 71.0645 172.928 71.3158 172.864C71.5678 172.801 71.8226 172.952 71.8866 173.202L91.3701 251.577C91.4339 251.827 91.282 252.082 91.0308 252.146C90.9919 252.155 90.953 252.16 90.9147 252.16H90.9147Z" fill="#D9D9D9"/>
<path d="M39.9766 166.977L72.4882 166.479L78.4741 200.497H40.446L39.9766 166.977Z" fill="#D9D9D9"/>
<path d="M89.9382 216.998L81.7446 231.366L91.258 233.452L95.2242 223.233L89.9382 216.998Z" fill="#FFB6B6"/>
<path d="M84.6876 228.653C84.6876 228.653 84.3692 226.31 82.4974 227.054C80.6256 227.797 75.2236 230.561 75.2236 230.561C75.2236 230.561 89.3134 253.363 91.9873 252.301C94.6613 251.239 91.4603 244.793 91.4603 244.793L92.1668 233.4L84.6876 228.653H84.6876Z" fill="#2F2E41"/>
<path d="M53.7026 189.119C53.7026 189.119 50.7792 202.513 59.7443 207.172C68.7095 211.831 99.308 200.378 99.308 200.378L85.2756 221.319L95.0203 225.225C95.0203 225.225 117.238 196.107 115.679 191.449C114.12 186.79 103.596 186.402 103.596 186.402L79.8185 187.566L73.5819 185.625L53.7026 189.119H53.7026Z" fill="#2F2E41"/>
<path d="M77.817 223.375L64.936 233.788L73.0351 239.179L80.4627 231.098L77.817 223.375Z" fill="#FFB6B6"/>
<path d="M68.6682 232.328C68.6682 232.328 69.2277 230.03 67.2126 230.044C65.1975 230.059 59.1562 230.675 59.1562 230.675C59.1562 230.675 63.9493 257.02 66.828 257C69.7067 256.98 69.0801 249.816 69.0801 249.816L73.9007 239.459L68.6682 232.328Z" fill="#2F2E41"/>
<path d="M54.2507 184.274C54.2507 184.274 46.6343 195.691 53.2828 203.279C59.9313 210.868 92.6164 211.29 92.6164 211.29L71.8951 225.71L79.545 232.879C79.545 232.879 110.878 213.81 111.127 208.906C111.377 204.001 101.716 199.826 101.716 199.826L79.1436 192.293L74.0437 188.225L54.2507 184.274H54.2507Z" fill="#2F2E41"/>
<path d="M73.817 157.832C73.817 157.832 66.411 155.114 62.9029 155.114C62.5677 155.114 62.2363 155.153 61.905 155.223C59.6598 155.697 57.594 157.618 56.6039 158.667C56.218 159.078 55.9958 159.354 55.9958 159.354C55.9958 159.354 56.0192 159.086 56.066 158.616C56.296 156.147 57.1457 148.045 58.6698 142.858C59.2155 141.006 59.8431 139.527 60.5642 138.809C62.2441 137.131 63.0198 135.12 63.3784 133.622C63.6825 132.337 63.6825 131.432 63.6825 131.432L60.8409 130.213L60.3147 126.789C60.2211 127.193 59.7885 127.981 58.3346 129.491C58.2098 129.619 58.0734 129.728 57.9292 129.821C55.8321 131.133 51.5561 128.851 49.2524 127.414C50.2113 124.095 51.9498 121.059 55.1071 120.562C62.5131 119.397 62.5131 115.127 67.1906 119.785C67.5765 120.17 67.9663 120.539 68.356 120.896C69.8528 123.745 70.3985 127.565 70.5934 130.221C70.7338 132.081 70.6987 133.373 70.6987 133.373C70.6987 133.373 72.6476 145.02 75.766 147.35C78.8843 149.679 73.817 157.832 73.817 157.832Z" fill="#2F2E41"/>
<path d="M59.3947 139.197L54.1279 146.891L66.0211 150.067V139.197H59.3947Z" fill="#FFB6B6"/>
<path opacity="0.1" d="M59.3947 139.197L54.1279 146.891L66.0211 150.067V139.197H59.3947Z" fill="black"/>
<path d="M66.7609 146.608L55.4569 141.949C55.4569 141.949 40.2551 148.549 41.4245 161.361C42.5939 174.172 53.508 196.302 53.508 196.302L75.3362 186.984L72.9975 162.137L66.7609 146.608Z" fill="#D9D9D9"/>
<path d="M61.9142 142.632C67.422 142.632 71.887 138.185 71.887 132.699C71.887 127.213 67.422 122.766 61.9142 122.766C56.4064 122.766 51.9414 127.213 51.9414 132.699C51.9414 138.185 56.4064 142.632 61.9142 142.632Z" fill="#FFB6B6"/>
<path d="M75.3761 129.103C73.4271 131.044 71.868 132.985 71.868 132.985L71.0884 129.879C71.0884 129.879 70.9091 130.011 70.5934 130.221C69.3577 131.06 66.0406 133.168 63.3784 133.622C62.1934 133.824 61.141 133.696 60.4549 132.985C59.001 131.475 58.5684 130.687 58.4748 130.283L57.9486 133.707L55.107 134.926C55.107 134.926 55.107 139.189 58.2253 142.303C58.3774 142.454 58.5255 142.64 58.6697 142.858C60.1587 145.094 61.2267 150.568 61.9049 155.223C62.5052 159.361 62.7937 162.848 62.7937 162.848C62.7937 162.848 59.843 159.167 56.6038 158.667C56.4245 158.639 56.2452 158.62 56.0659 158.616C56.0074 158.608 55.9451 158.608 55.8866 158.608C52.3785 158.608 44.9725 161.326 44.9725 161.326C44.9725 161.326 39.9052 153.173 43.0235 150.844C46.1419 148.514 48.0908 136.867 48.0908 136.867C48.0908 136.867 47.9622 131.883 49.2524 127.414C50.2113 124.095 51.9497 121.059 55.107 120.562C62.513 119.397 62.513 115.127 67.1905 119.785C67.5764 120.17 67.9662 120.539 68.356 120.896C72.7138 124.887 77.1652 127.321 75.3761 129.103Z" fill="#2F2E41"/>
<path d="M31.6363 181.217H27.9326V254.073H31.6363V181.217Z" fill="#3F3D56"/>
<path d="M121.452 181.217H117.748V254.073H121.452V181.217Z" fill="#3F3D56"/>
<path d="M97.8404 150.323H73.3032V174.762H97.8404V150.323Z" fill="#FFB6B6"/>
<path d="M59.1602 176.308L69.1366 169.989L73.1926 172.425L59.1602 188.485V176.308Z" fill="#FFB6B6"/>
<path d="M45.5173 151.849C45.5173 151.849 38.8909 153.402 42.0092 162.331C45.1275 171.261 55.262 189.896 58.3804 188.731C61.4987 187.566 61.8885 175.919 61.8885 175.919C61.8885 175.919 61.4987 176.308 59.9395 174.755C58.3804 173.202 58.3804 173.911 58.3804 172.198C58.3804 170.484 57.1051 169.214 57.1051 169.214L55.6518 166.214C55.6518 166.214 55.6518 152.237 49.805 151.461C43.9581 150.685 45.5173 151.849 45.5173 151.849H45.5173Z" fill="#D9D9D9"/>
<path d="M76.4761 172.008C79.0639 169.43 79.866 166.051 78.2677 164.459C76.6693 162.867 73.2758 163.666 70.688 166.243C68.1003 168.82 67.2981 172.2 68.8965 173.792C70.4948 175.384 73.8883 174.585 76.4761 172.008Z" fill="#FFB6B6"/>
<path d="M128.859 178.451H16.8213V186.751H128.859V178.451Z" fill="#3F3D56"/>
<path d="M242.689 112.051H226.142C224.83 112.051 223.767 113.11 223.767 114.416V121.213C223.767 122.519 224.83 123.578 226.142 123.578H242.689C244 123.578 245.064 122.519 245.064 121.213V114.416C245.064 113.11 244 112.051 242.689 112.051Z" fill="#3F3D56"/>
<path d="M277.411 118.847H260.865C259.553 118.847 258.49 119.906 258.49 121.213V121.213C258.49 122.519 259.553 123.578 260.865 123.578H277.411C278.723 123.578 279.786 122.519 279.786 121.213C279.786 119.906 278.723 118.847 277.411 118.847Z" fill="#FFB6B6"/>
</g>
<defs>
<clipPath id="clip0_23_1774">
<rect width="394" height="257" fill="white"/>
</clipPath>
</defs>
</svg>
