<?xml version="1.0" encoding="UTF-8"?>
<svg id="Layer_2" data-name="Layer 2" xmlns="http://www.w3.org/2000/svg" viewBox="0 0 153.34 178.36">
  <defs>
    <style>
      .cls-1 {
        fill: #edd9c3;
      }

      .cls-1, .cls-2 {
        stroke-width: 0px;
      }

      .cls-2 {
        fill: #092342;
      }
    </style>
  </defs>
  <g id="OBJECTS">
    <g>
      <path class="cls-2" d="m77.05,0C37.73,0,25.42,37.98,24.23,54.96c-.87,12.36,2.68,35.5,4.68,47.19.66,3.84,4.38,6.34,8.18,5.5,9.12-2.03,25.63-5.22,39.42-5.22l.54-102.43Z"/>
      <path class="cls-2" d="m77.05,0c39.32,0,50.55,37.98,51.74,54.96.87,12.36-2.68,35.5-4.68,47.19-.66,3.84-4.38,6.34-8.18,5.5-9.12-2.03-25.63-5.22-39.42-5.22l.54-102.43Z"/>
      <path class="cls-2" d="m80.11,178.34l13.32-.04,59.91.06s-.05-4.77-.44-7.31c-.39-2.54-3.88-25.26-8.82-34.96-4.04-7.95-14.86-14.79-19.77-17.6-1.48-.85-3.32-.71-4.66.35l-39.45,30.95c-2.08,1.63-4.99,1.63-7.07,0l-40.72-31.98c-.53-.42-1.25-.52-1.87-.26-7.17,3.01-16.22,8.57-21.29,18.54C4.32,145.79.83,168.5.44,171.05c-.39,2.54-.44,7.31-.44,7.31l59.94-.06,13.33.04v.02h3.41s3.41,0,3.41,0v-.02Z"/>
      <path class="cls-1" d="m47.94,65.49c5.36,16.47,16.56,26.81,28.58,26.81s26.57-11.74,30.27-26.81c0,0,4.72,3.19,8.04-.51,3.32-3.7,5.62-17.62-.51-17.74-2.55,0-5.49,9.7-8.04,9.7s-22.85-11.36-22.09-28.85c0,0-7.28,22.85-24,30.77,0,0,13.01-12,14.91-31.02,0,0-4.77,24.04-27.17,37.66Z"/>
    </g>
  </g>
</svg>