<?xml version="1.0" encoding="UTF-8"?>
<svg id="Layer_2" data-name="Layer 2" xmlns="http://www.w3.org/2000/svg" viewBox="0 0 152.47 171.04">
  <defs>
    <style>
      .cls-1 {
        fill: #456fad;
      }

      .cls-1, .cls-2 {
        stroke-width: 0px;
      }

      .cls-2 {
        fill: #092342;
      }
    </style>
  </defs>
  <g id="OBJECTS">
    <g>
      <path class="cls-1" d="m84.37,114.33s-.81.69-2.42,1.3c.86-.35,1.68-.78,2.42-1.3Z"/>
      <path class="cls-2" d="m.44,163.65c.39-2.54,6.14-34.63,7.03-37.6.89-2.98,1.35-5.65,3.93-7.31,2.57-1.66,12.86-6.1,20.16-9.01,7.31-2.91,12.82-5.16,14.19-7.84-.61.87-.19,4.4.22,7.63.4,3.23,3.04,18.64,4.76,24.59,1.71,5.95,9.77,31.61,14.23,36.79l-64.96.06s.05-4.77.44-7.31Z"/>
      <path class="cls-2" d="m68.37,114.34c-10.33-6.93-15.96-20.76-15.96-20.76l-1.19-8.6c-5.35-8.69-6.3-14.8-6.3-14.8,0,0-1.6-.59-4-2.4-4.57-3.45-6.66-13.92-1.74-17.13,1.68-1.09,4.04-1.61,4.62.94-.33-1.48-.37-3.06-.51-4.56-.37-3.95-.66-7.92-.88-11.88C41.91,25.69,47.33,0,75.98,0c18.81,0,27.61,9.75,30.54,15.98,2.93,6.23,3.18,13.24,3.44,19.53.23,5.48-.76,14-1.01,16.1.23-.91,1.13-2.01,2.37-1.78,7.37,1.35,5.22,13.18,1.75,17.51-2.07,2.59-5.13,2.98-5.1,2.85-1.59,6.81-6.34,14.61-6.34,14.61-.53,16.18-15.47,28.46-17.26,29.53-.74.51,0,0,0,0,1.08,10.62-3.3,13.46-3.3,13.46l6.48,43.06c4.47-5.28,12.48-30.8,14.19-36.74,1.71-5.95,4.36-21.36,4.76-24.59.4-3.22.82-6.75.21-7.63,1.37,2.68,6.88,4.93,14.19,7.84,7.31,2.91,17.59,7.34,20.16,9.01,2.58,1.66,3.03,4.32,3.93,7.31.9,2.98,6.64,35.06,7.03,37.6.39,2.54.44,7.31.44,7.31l-64.91-.06.02.11-11.12.03-11.34-.03,6.39-43.22s-4.21-2.83-3.14-13.44Z"/>
    </g>
  </g>
</svg>