<svg width="161.8" height="38.996" version="1.1" viewBox="0 0 161.8 38.996" xmlns="http://www.w3.org/2000/svg">
 <g transform="matrix(1.3333 0 0 -1.3333 -32.498 107.61)">
  <g transform="scale(.1)" fill="#fff">
   <path d="m334.92 626h75.59l-25.594 82.527c-4.801 15.231-11.602 44.078-11.602 44.078h-0.8s-7.192-28.847-11.996-44.078zm8.398 181.09h59.993l100.79-286.46h-60.391l-19.199 60.898h-103.19l-18.801-60.898h-58.789l99.586 286.46"/>
   <path d="m576.87 698.11h1.207c13.988 22.035 32.793 33.657 60.785 33.657 42.399 0 70.789-32.055 70.789-76.922v-134.22h-54.394v126.2c0 22.039-12.793 37.664-35.59 37.664-23.992 0-41.59-19.234-41.59-47.277v-116.59h-54.394v205.53h53.187v-28.047"/>
   <path d="m727.25 726.16h28.395v64.106h53.199v-64.106h35.199v-36.058h-35.199v-108.98c0-15.223 8.402-20.434 20.398-20.434 6.797 0 15.996 0.403 15.996 0.403v-40.063s-12.402-0.804-33.988-0.804c-26.402 0-55.605 10.421-55.605 49.277v120.6h-28.395v36.058"/>
   <path d="m914.43 645.63h91.184c-1.61 26.043-18.794 44.074-43.598 44.074-28.797 0-42.782-17.23-47.586-44.074zm-54.395-22.031c0 60.898 41.199 108.17 101.19 108.17 65.987 0 101.18-50.485 101.18-123.8h-148.78c4.004-31.649 21.59-51.285 52.391-51.285 21.191 0 33.593 9.625 39.594 25.242h53.6c-7.61-36.453-40-67.305-92.792-67.305-68 0-106.39 47.676-106.39 108.98"/>
   <path d="m1074.8 587.14h50.39c3.6-23.637 20.4-34.059 44.79-34.059 24 0 37.6 9.219 37.6 23.641 0 19.633-26 21.633-54.01 27.246-36.78 7.211-72.78 17.226-72.78 62.101 0 44.465 36.79 65.704 83.59 65.704 53.99 0 83.99-26.844 87.99-68.11h-49.19c-2.41 22.035-16.41 30.047-39.6 30.047-21.2 0-35.2-8.012-35.2-22.836 0-17.625 27.2-19.23 56.4-25.242 34.39-7.207 72.39-16.828 72.39-64.902 0-41.266-35.2-66.106-86.39-66.106-59.59 0-92.78 28.844-95.98 72.516"/>
   <path d="m1409.2 806.69c-13.18 0-25.095-6.0345-33.795-14.663 1.4213-1.4537 2.7378-2.9986 3.9406-4.6144 1.0547-1.4169 2.0151-2.8973 2.8858-4.4239-0.8721 1.5299-1.829 3.0042-2.8858 4.4239-1.2028 1.6157-2.5193 3.1607-3.9406 4.6144-8.62 8.829-21.079 14.473-35.069 14.473h-20.435-0.0146-19.776c-4.64 0-8.4084-3.7701-8.4084-8.4231v-116.88c0-3.621 2.928-6.5627 6.548-6.5627h15.088c3.62 0 6.5627 2.9417 6.5627 6.5627v26.617h20.494c7.94 0 15.37 1.9718 21.9 5.3468 14.98 7.743 25.123 22.967 25.123 39.42l-0.0146 2.9151h0.0439l0.1612 7.4855c0 1.3866-0.0637 2.7605-0.2051 4.1163 0.1414-1.3558 0.2197-2.7297 0.2197-4.1163l-0.1318-5.8449c0.7081 15.283 11.265 23.013 20.992 23.013 9.09 0 13.991-3.7253 17.681-7.1633 1.15-1.132 2.6389-1.7578 4.2189-1.7578 1.36 0 2.6908 0.48599 3.7208 1.377l11.822 10.122c1.2 1.023 1.9069 2.4687 2.0069 4.0577 0.1 1.602-0.4582 3.1304-1.5382 4.3214-12.37 13.516-25.173 15.578-37.193 15.586zm-25.679-26.119c1.4616-2.9996 2.5614-6.166 3.252-9.4631-0.6906 3.2971-1.7904 6.4636-3.252 9.4631zm-63.62-1.9483h19.439c10.34 0 20.64-7.8085 20.64-21.211v-1.9044h-0.0439v-1.5381c0-14.356-11.091-19.717-21.431-19.717h-18.604v44.371zm67.575-26.046c0-16.453-10.143-31.677-25.123-39.42l-0.0439-0.0586c3.5693-20.012 21.357-38.446 46.539-38.453v-0.01464c29.8 0 47.825 23.658 48.385 47.682 0 1.515-0.0293 23.775-0.0293 23.775-0.01 3.195-2.6109 5.8009-5.8009 5.8009h-37.179c-3.19 0-5.7863-2.6196-5.7863-5.8156v-14.751c0-3.203 2.5963-5.8009 5.7863-5.8009h16.348v-5.0538c0-11.382-10.265-19.476-21.71-19.483v0.01465c-11.34 0.446-21.168 8.4174-21.168 20.171 0 4.6157-0.168 22.146-0.2198 31.407z"/>
  </g>
 </g>
</svg>
