<svg width="435" height="320" viewBox="0 0 435 320" fill="none" xmlns="http://www.w3.org/2000/svg">
<path d="M310.271 315.497C303.458 309.74 299.319 300.645 300.404 291.791C301.489 282.937 308.211 274.798 316.931 272.918C325.651 271.038 335.59 276.242 338.239 284.76C339.697 268.338 341.376 251.228 350.107 237.243C358.013 224.58 371.707 215.519 386.545 213.898C401.383 212.277 417.009 218.398 426.264 230.112C435.519 241.826 437.785 258.853 431.303 272.3C426.528 282.206 417.731 289.579 408.513 295.576C378.728 314.794 343.003 322.609 307.913 317.583L310.271 315.497Z" fill="#F2F2F2"/>
<path d="M411.591 218.744C380.128 244.414 355.61 277.569 340.281 315.17C339.601 316.837 342.307 317.562 342.981 315.914C358.183 278.782 382.453 246.054 413.571 220.723C414.971 219.585 412.978 217.615 411.592 218.744H411.591Z" fill="#EDC7B7"/>
<path d="M171.317 313.933C180.675 306.025 186.359 293.533 184.869 281.373C183.379 269.213 174.145 258.033 162.169 255.451C150.193 252.869 136.54 260.017 132.903 271.716C130.903 249.161 128.594 225.66 116.603 206.452C105.745 189.06 86.9377 176.615 66.5547 174.388C46.1717 172.161 24.7117 180.571 12.0007 196.659C-0.7103 212.747 -3.82331 236.135 5.07969 254.604C11.6387 268.21 23.7217 278.336 36.3797 286.574C77.2888 312.97 126.354 323.704 174.548 316.801" fill="#F2F2F2"/>
<path d="M32.1566 181.039C48.9746 194.737 64.4034 210.058 78.2196 226.78C92.038 243.484 104.204 261.489 114.546 280.542C120.326 291.23 125.52 302.225 130.102 313.48C131.036 315.769 127.319 316.766 126.395 314.502C118.279 294.661 108.238 275.663 96.4156 257.781C84.6512 239.963 71.1861 223.329 56.2096 208.112C47.739 199.51 38.8018 191.38 29.4386 183.76C27.5196 182.197 30.2536 179.492 32.1566 181.042V181.039Z" fill="#EDC7B7"/>
<path d="M332.07 318.397H108.801V89.3177C108.827 65.8834 118.148 43.4164 134.719 26.8458C151.289 10.2752 173.756 0.954202 197.191 0.927734H243.681C267.115 0.954202 289.582 10.2752 306.153 26.8458C322.723 43.4164 332.044 65.8834 332.071 89.3177L332.07 318.397Z" fill="#F2F2F2"/>
<path d="M292.112 318.395H115.332V89.3178C115.284 70.6424 121.197 52.439 132.212 37.3578C132.618 36.8048 133.023 36.2578 133.441 35.7178C138.769 28.7297 145.11 22.5753 152.253 17.4578C152.653 17.1638 153.062 16.8758 153.473 16.5868C159.451 12.4502 165.917 9.06853 172.724 6.51884C173.124 6.36584 173.54 6.21184 173.951 6.06485C180.108 3.86782 186.491 2.36288 192.98 1.57783C193.38 1.52283 193.795 1.47784 194.208 1.43684C200.533 0.760637 206.911 0.760637 213.235 1.43684C213.647 1.47984 214.06 1.52284 214.467 1.57884C220.956 2.36407 227.336 3.869 233.491 6.06584C233.903 6.21284 234.314 6.36583 234.72 6.51983C241.444 9.03723 247.834 12.3683 253.748 16.4388C254.159 16.7208 254.57 17.0098 254.975 17.2978C258.98 20.156 262.741 23.3402 266.22 26.8178C269.011 29.6072 271.612 32.5805 274.004 35.7178C274.42 36.2568 274.825 36.8028 275.231 37.3548C286.247 52.4361 292.161 70.64 292.112 89.3158V318.395Z" fill="#CCCCCC"/>
<path d="M262.117 215.939C267.522 215.939 271.904 211.557 271.904 206.152C271.904 200.747 267.522 196.365 262.117 196.365C256.712 196.365 252.33 200.747 252.33 206.152C252.33 211.557 256.712 215.939 262.117 215.939Z" fill="#6C63FF"/>
<path d="M297.953 311.537H290.453L286.885 282.611H297.954L297.953 311.537Z" fill="#FFB8B8"/>
<path d="M285.561 309.395H300.024V318.501H276.461C276.461 316.085 277.42 313.769 279.128 312.062C280.836 310.354 283.152 309.395 285.567 309.395H285.561Z" fill="#2F2E41"/>
<path d="M328.308 311.537H320.808L317.24 282.611H328.309L328.308 311.537Z" fill="#FFB8B8"/>
<path d="M315.746 309.395H330.209V318.501H306.646C306.646 316.085 307.606 313.769 309.314 312.062C311.021 310.354 313.337 309.395 315.753 309.395H315.746Z" fill="#2F2E41"/>
<path d="M261.681 208.092C261.142 207.297 260.783 206.393 260.63 205.445C260.478 204.496 260.535 203.526 260.798 202.602C261.061 201.678 261.523 200.823 262.153 200.097C262.782 199.371 263.563 198.792 264.44 198.401L289.933 128.137L302.477 134.983L273.369 202.13C273.929 203.647 273.914 205.317 273.325 206.824C272.736 208.331 271.614 209.569 270.173 210.304C268.733 211.039 267.072 211.22 265.507 210.812C263.941 210.405 262.58 209.437 261.68 208.093L261.681 208.092Z" fill="#FFB8B8"/>
<path d="M323.729 221.288C322.895 220.81 322.176 220.156 321.623 219.37C321.07 218.584 320.696 217.687 320.527 216.741C320.359 215.795 320.399 214.824 320.647 213.896C320.894 212.967 321.342 212.105 321.959 211.368L314.059 137.041L328.335 137.693L331.617 210.804C332.783 211.922 333.499 213.43 333.63 215.04C333.76 216.651 333.295 218.254 332.324 219.545C331.352 220.837 329.941 221.727 328.357 222.048C326.773 222.369 325.126 222.099 323.729 221.288Z" fill="#FFB8B8"/>
<path d="M304.87 115.122C313.167 115.122 319.894 108.396 319.894 100.098C319.894 91.8007 313.167 85.0742 304.87 85.0742C296.572 85.0742 289.846 91.8007 289.846 100.098C289.846 108.396 296.572 115.122 304.87 115.122Z" fill="#FFB8B8"/>
<path d="M326.194 204.388H280.9L280.955 204.036C281.036 203.509 289.027 151.161 283.134 134.036C282.543 132.353 282.595 130.51 283.28 128.863C283.966 127.216 285.236 125.881 286.847 125.115C295.271 121.148 311.442 116.263 325.09 128.115C327.099 129.888 328.667 132.104 329.671 134.588C330.675 137.072 331.088 139.755 330.876 142.426L326.194 204.388Z" fill="#6C63FF"/>
<path d="M295.158 158.901L274.766 154.764L284.325 132.113C284.599 131.017 285.087 129.986 285.762 129.08C286.436 128.173 287.283 127.409 288.254 126.832C289.225 126.254 290.301 125.875 291.419 125.715C292.538 125.555 293.677 125.618 294.771 125.901C295.865 126.183 296.892 126.679 297.793 127.36C298.695 128.042 299.452 128.894 300.022 129.87C300.593 130.845 300.964 131.924 301.115 133.043C301.267 134.163 301.195 135.301 300.905 136.393L295.158 158.901Z" fill="#6C63FF"/>
<path d="M313.296 166.58L312.07 138.48C311.14 133.197 314.165 128.203 318.815 127.387C323.465 126.571 328.01 130.238 328.944 135.559L333.552 161.818L313.296 166.58Z" fill="#6C63FF"/>
<path d="M324.704 201.025C331.992 228.782 332.787 264.072 330.821 302.567L321.034 301.344L303.295 227.944L293.508 302.571L282.497 301.959C279.208 261.569 276.005 226.895 281.274 204.087L324.704 201.025Z" fill="#2F2E41"/>
<path d="M314.65 111.708C311.85 114.694 306.642 113.091 306.277 109.008C306.248 108.691 306.25 108.373 306.283 108.056C306.472 106.249 307.515 104.609 307.265 102.701C307.209 102.226 307.032 101.774 306.751 101.386C304.518 98.3952 299.275 102.724 297.167 100.016C295.874 98.3562 297.394 95.7422 296.402 93.8862C295.093 91.4372 291.216 92.6452 288.784 91.3042C286.079 89.8122 286.24 85.6612 288.021 83.1362C289.18 81.6443 290.654 80.4265 292.338 79.5693C294.021 78.7122 295.873 78.2368 297.761 78.1772C301.542 78.0881 305.297 78.821 308.767 80.3252C312.756 81.8802 316.712 84.0252 319.167 87.5352C322.152 91.8002 322.44 97.5352 320.947 102.523C320.038 105.564 316.939 109.27 314.65 111.708Z" fill="#2F2E41"/>
<path d="M416.793 318.791H62.0443C61.8813 318.751 61.7363 318.658 61.6326 318.526C61.529 318.393 61.4727 318.23 61.4727 318.062C61.4727 317.895 61.529 317.732 61.6326 317.599C61.7363 317.467 61.8813 317.374 62.0443 317.334H416.793C416.956 317.374 417.101 317.467 417.205 317.599C417.309 317.732 417.365 317.895 417.365 318.062C417.365 318.23 417.309 318.393 417.205 318.526C417.101 318.658 416.956 318.751 416.793 318.791Z" fill="#3F3D56"/>
<path d="M242.445 252.03H162.921C161.874 252.035 160.867 251.625 160.122 250.89C159.377 250.154 158.954 249.153 158.945 248.106V70.6057C158.954 69.5585 159.377 68.5573 160.122 67.8217C160.867 67.0861 161.874 66.6761 162.921 66.6817H242.445C243.493 66.6761 244.499 67.0861 245.245 67.8217C245.99 68.5573 246.413 69.5585 246.421 70.6057V248.106C246.413 249.153 245.99 250.154 245.245 250.89C244.499 251.625 243.493 252.035 242.445 252.03Z" fill="white"/>
<path d="M246.418 124.117H158.945V125.34H246.418V124.117Z" fill="#CCCCCC"/>
<path d="M246.659 193.918H159.186V195.141H246.659V193.918Z" fill="#CCCCCC"/>
<path d="M189.877 66.6855H188.654V252.642H189.877V66.6855Z" fill="#CCCCCC"/>
<path d="M214.864 66.6855H213.641V252.642H214.864V66.6855Z" fill="#CCCCCC"/>
</svg>
