<svg width="161.8" height="38.996" version="1.1" viewBox="0 0 161.8 38.996" xmlns="http://www.w3.org/2000/svg">
 <g transform="matrix(1.3333 0 0 -1.3333 -32.498 107.61)">
  <g transform="scale(.1)">
   <g fill="#8b1031">
    <path d="m334.92 626h75.59l-25.594 82.527c-4.801 15.231-11.602 44.078-11.602 44.078h-0.8s-7.192-28.847-11.996-44.078zm8.398 181.09h59.993l100.79-286.46h-60.391l-19.199 60.898h-103.19l-18.801-60.898h-58.789l99.586 286.46"/>
    <path d="m576.87 698.11h1.207c13.988 22.035 32.793 33.657 60.785 33.657 42.399 0 70.789-32.055 70.789-76.922v-134.22h-54.394v126.2c0 22.039-12.793 37.664-35.59 37.664-23.992 0-41.59-19.234-41.59-47.277v-116.59h-54.394v205.53h53.187v-28.047"/>
    <path d="m727.25 726.16h28.395v64.106h53.199v-64.106h35.199v-36.058h-35.199v-108.98c0-15.223 8.402-20.434 20.398-20.434 6.797 0 15.996 0.403 15.996 0.403v-40.063s-12.402-0.804-33.988-0.804c-26.402 0-55.605 10.421-55.605 49.277v120.6h-28.395v36.058"/>
    <path d="m914.43 645.63h91.184c-1.61 26.043-18.794 44.074-43.598 44.074-28.797 0-42.782-17.23-47.586-44.074zm-54.395-22.031c0 60.898 41.199 108.17 101.19 108.17 65.987 0 101.18-50.485 101.18-123.8h-148.78c4.004-31.649 21.59-51.285 52.391-51.285 21.191 0 33.593 9.625 39.594 25.242h53.6c-7.61-36.453-40-67.305-92.792-67.305-68 0-106.39 47.676-106.39 108.98"/>
    <path d="m1074.8 587.14h50.39c3.6-23.637 20.4-34.059 44.79-34.059 24 0 37.6 9.219 37.6 23.641 0 19.633-26 21.633-54.01 27.246-36.78 7.211-72.78 17.226-72.78 62.101 0 44.465 36.79 65.704 83.59 65.704 53.99 0 83.99-26.844 87.99-68.11h-49.19c-2.41 22.035-16.41 30.047-39.6 30.047-21.2 0-35.2-8.012-35.2-22.836 0-17.625 27.2-19.23 56.4-25.242 34.39-7.207 72.39-16.828 72.39-64.902 0-41.266-35.2-66.106-86.39-66.106-59.59 0-92.78 28.844-95.98 72.516"/>
   </g>
   <path d="m1387.7 721.16c0 5.016-0.21 26.16-0.24 34.34l0.01-2.922c0-16.453-10.13-31.683-25.11-39.426l-0.05-0.058c3.57-20.016 21.37-38.457 46.56-38.457v26.355c-11.34 0.446-21.17 8.414-21.17 20.168" fill="#f47216"/>
   <path d="m1387.4 755.5h-27.46v-1.531c0-14.356-11.09-19.723-21.43-19.723h-18.67v-26.437h20.56c7.94 0 15.37 1.968 21.9 5.343 14.98 7.743 25.11 22.973 25.11 39.426l-0.01 2.922" fill="#38b96b"/>
   <path d="m1457.2 746.08c-0.01 3.195-2.61 5.797-5.8 5.797h-37.17c-3.19 0-5.79-2.609-5.79-5.805v-14.758c0-3.203 2.6-5.804 5.79-5.804h16.34v-5.051c0-11.387-10.27-19.484-21.72-19.484v-26.344c29.8 0 47.83 23.648 48.39 47.672 0 1.515-0.04 23.777-0.04 23.777" fill="#fab20b"/>
   <path d="m1319.9 806.5h-19.79c-4.64 0-8.41-3.769-8.41-8.422v-116.89c0-3.621 2.93-6.563 6.55-6.563h15.09c3.62 0 6.56 2.942 6.56 6.563v125.31" fill="#244ca7"/>
   <path d="m1446.4 791.1c-12.37 13.516-25.18 15.575-37.2 15.583-13.18 0-25.09-6.036-33.79-14.665 7.58-7.753 12.21-17.957 12.21-29.05l-0.17-7.477c0 16.375 10.96 24.645 21.03 24.645 9.09 0 13.99-3.723 17.68-7.161 1.15-1.132 2.64-1.757 4.22-1.757 1.36 0 2.69 0.488 3.72 1.379l11.82 10.121c1.2 1.023 1.91 2.465 2.01 4.054 0.1 1.602-0.45 3.137-1.53 4.328" fill="#ed155a"/>
   <path d="m1375.4 792.02c-8.62 8.829-21.08 14.473-35.07 14.473h-20.45v-27.871h19.46c10.34 0 20.64-7.816 20.64-21.219v-1.91h27.46l0.17 7.477c0 11.093-4.63 21.297-12.21 29.05" fill="#5a74c2"/>
  </g>
 </g>
</svg>
