<svg width="478" height="317" viewBox="0 0 478 317" fill="none" xmlns="http://www.w3.org/2000/svg">
<path d="M171.819 182.149C188.14 153.438 219.273 131.393 252.229 133.517C227.919 159.953 213.744 194.136 212.21 230.017C211.669 243.857 212.51 259.307 203.319 269.67C197.601 276.118 188.862 279.241 180.269 279.897C171.676 280.553 163.084 278.997 154.605 277.453L152.548 278.084C151.765 245.068 155.498 210.86 171.819 182.149Z" fill="#F0F0F0"/>
<path d="M252.28 134.208C227.654 146.071 207.392 165.391 194.371 189.426C191.476 194.55 189.408 200.099 188.241 205.868C187.286 211.524 187.863 217.333 189.912 222.691C191.722 227.725 194.157 232.665 194.712 238.051C194.955 240.812 194.612 243.594 193.705 246.213C192.797 248.833 191.347 251.231 189.448 253.251C184.848 258.406 178.668 261.6 172.517 264.514C165.688 267.749 158.543 271.002 153.705 277.04C153.119 277.772 152.018 276.819 152.605 276.089C161.021 265.584 175.427 263.609 185.416 255.146C190.077 251.197 193.577 245.82 193.356 239.519C193.163 234.009 190.656 228.913 188.779 223.832C186.703 218.634 185.932 213.008 186.532 207.444C187.401 201.634 189.253 196.015 192.008 190.827C198.022 179.047 205.851 168.286 215.208 158.939C225.829 148.211 238.208 139.38 251.808 132.827C252.65 132.422 253.116 133.802 252.279 134.204L252.28 134.208Z" fill="#EDC7B7"/>
<path d="M198.106 181.446C194.37 178.714 191.727 174.743 190.649 170.242C189.57 165.741 190.126 161.003 192.218 156.875C192.644 156.041 193.96 156.664 193.533 157.499C191.578 161.34 191.06 165.753 192.073 169.942C193.086 174.132 195.563 177.821 199.057 180.344C199.816 180.893 198.857 181.992 198.106 181.444V181.446Z" fill="#EDC7B7"/>
<path d="M188.657 220.266C198.019 218.898 206.522 214.052 212.469 206.693C213.058 205.964 214.159 206.915 213.569 207.644C207.366 215.29 198.508 220.315 188.762 221.717C187.833 221.85 187.731 220.398 188.655 220.265L188.657 220.266Z" fill="#EDC7B7"/>
<path d="M226.551 150.007C227.776 151.365 229.32 152.398 231.043 153.012C232.766 153.627 234.615 153.803 236.423 153.527C237.35 153.382 237.45 154.835 236.53 154.979C234.531 155.275 232.489 155.078 230.584 154.403C228.678 153.729 226.967 152.598 225.6 151.11C225.459 150.98 225.373 150.802 225.359 150.611C225.345 150.421 225.405 150.232 225.525 150.084C225.651 149.938 225.83 149.849 226.022 149.834C226.214 149.82 226.404 149.882 226.551 150.007Z" fill="#EDC7B7"/>
<path d="M317.804 224.088C317.228 224.195 316.652 224.302 316.07 224.42C308.331 225.896 300.726 227.998 293.328 230.706C292.753 230.906 292.173 231.118 291.604 231.334C273.85 238.048 257.497 248 243.376 260.684C237.761 265.736 232.539 271.209 227.755 277.053C221.148 285.125 214.627 294.403 205.994 299.666C205.099 300.225 204.171 300.729 203.214 301.173L153.479 280.544C153.39 280.444 153.295 280.344 153.205 280.244L151.182 279.511C151.408 279.192 151.649 278.867 151.874 278.548C152.004 278.363 152.145 278.182 152.274 277.996C152.364 277.874 152.455 277.752 152.53 277.637C152.56 277.596 152.59 277.556 152.616 277.526C152.69 277.411 152.772 277.311 152.842 277.207C154.184 275.383 155.541 273.566 156.913 271.754C156.913 271.743 156.913 271.743 156.934 271.736C167.423 257.96 179.155 244.936 192.49 234.111C192.89 233.785 193.297 233.448 193.721 233.132C199.759 228.285 206.183 223.94 212.929 220.139C216.629 218.07 220.432 216.19 224.323 214.505C234.384 210.172 245.064 207.448 255.972 206.433C277.717 204.414 299.865 209.371 316.542 223.033C316.967 223.381 317.383 223.727 317.804 224.088Z" fill="#F0F0F0"/>
<path d="M317.429 224.673C290.623 219.319 262.811 222.548 237.944 233.9C232.548 236.249 227.555 239.434 223.15 243.337C218.982 247.278 215.946 252.264 214.356 257.775C212.771 262.884 211.741 268.294 208.941 272.929C207.473 275.281 205.524 277.295 203.223 278.84C200.921 280.386 198.319 281.427 195.587 281.896C188.81 283.242 181.953 282.072 175.287 280.696C167.887 279.167 160.223 277.462 152.726 279.371C151.818 279.602 151.512 278.179 152.419 277.948C165.464 274.627 178.155 281.723 191.226 280.981C197.326 280.635 203.357 278.448 206.975 273.281C210.138 268.765 211.205 263.187 212.766 258C214.238 252.601 217.01 247.644 220.839 243.562C225.031 239.447 229.893 236.075 235.216 233.591C247.111 227.807 259.842 223.93 272.941 222.1C287.88 219.929 303.08 220.33 317.884 223.285C318.8 223.468 318.341 224.851 317.431 224.669L317.429 224.673Z" fill="#EDC7B7"/>
<path d="M245.74 229.772C244.401 225.342 244.682 220.58 246.53 216.336C248.379 212.093 251.676 208.645 255.832 206.608C256.674 206.199 257.35 207.489 256.506 207.898C252.632 209.788 249.561 213 247.848 216.954C246.134 220.909 245.891 225.346 247.162 229.464C247.437 230.364 246.013 230.664 245.739 229.771L245.74 229.772Z" fill="#EDC7B7"/>
<path d="M214.819 255.081C223.118 259.625 232.824 260.875 242.003 258.581C242.912 258.353 243.218 259.781 242.31 260.004C232.754 262.373 222.655 261.052 214.03 256.304C213.208 255.851 214.001 254.63 214.819 255.081Z" fill="#EDC7B7"/>
<path d="M287.376 221.792C287.536 223.615 288.147 225.368 289.153 226.896C290.159 228.424 291.528 229.679 293.139 230.546C293.966 230.989 293.172 232.209 292.35 231.769C290.574 230.803 289.063 229.416 287.947 227.73C286.832 226.045 286.146 224.111 285.95 222.099C285.915 221.911 285.954 221.717 286.058 221.556C286.161 221.396 286.322 221.281 286.508 221.234C286.696 221.195 286.893 221.231 287.055 221.336C287.217 221.44 287.331 221.604 287.373 221.792H287.376Z" fill="#EDC7B7"/>
<path d="M223.063 258.123C216.098 224.445 207.391 213.217 207.391 213.217L204.065 210.638L200.065 207.531L200.084 207.131L199.135 206.809L198.912 206.636L198.547 206.356L198.488 206.419L198.364 206.547L180.264 200.395L157.301 192.595L146.668 178.774C144.936 176.523 142.707 174.704 140.154 173.459C137.601 172.214 134.795 171.577 131.955 171.598L97.9952 171.849C93.4035 171.883 88.9906 173.633 85.6242 176.756L63.3032 197.456L28.5222 214.067L28.4632 214.008L28.0982 214.269L22.7242 216.839L22.9462 217.993L19.6202 220.393C19.6202 220.393 10.9132 230.841 3.94816 262.178C2.17616 270.152 1.30416 287.256 0.989161 308.333C0.973389 309.399 1.16973 310.458 1.56678 311.448C1.96382 312.437 2.55364 313.338 3.30194 314.098C4.05025 314.857 4.9421 315.461 5.92565 315.873C6.90921 316.285 7.96483 316.497 9.03115 316.497H217.988C219.054 316.497 220.109 316.284 221.091 315.873C222.074 315.461 222.966 314.859 223.714 314.1C224.462 313.341 225.052 312.442 225.45 311.453C225.847 310.464 226.045 309.407 226.03 308.341C225.723 285.409 224.851 266.769 223.063 258.123Z" fill="#3F3D56"/>
<path d="M246.899 29.3701C243.3 29.3393 239.732 30.0214 236.399 31.377C233.065 32.7326 230.034 34.735 227.478 37.2684C224.923 39.8019 222.895 42.8163 221.511 46.1377C220.127 49.4592 219.414 53.0218 219.414 56.6201C219.414 60.2184 220.127 63.7811 221.511 67.1025C222.895 70.424 224.923 73.4384 227.478 75.9719C230.034 78.5053 233.065 80.5077 236.399 81.8633C239.732 83.2189 243.3 83.901 246.899 83.8701H449.989C453.587 83.901 457.155 83.2189 460.489 81.8633C463.822 80.5077 466.853 78.5053 469.409 75.9719C471.964 73.4384 473.992 70.424 475.376 67.1025C476.76 63.7811 477.473 60.2184 477.473 56.6201C477.473 53.0218 476.76 49.4592 475.376 46.1377C473.992 42.8163 471.964 39.8019 469.409 37.2684C466.853 34.735 463.822 32.7326 460.489 31.377C457.155 30.0214 453.587 29.3393 449.989 29.3701H246.899Z" fill="black"/>
<path d="M246.897 34.8857C241.132 34.8857 235.603 37.1758 231.527 41.2522C227.45 45.3286 225.16 50.8574 225.16 56.6223C225.16 62.3871 227.45 67.9159 231.527 71.9923C235.603 76.0687 241.132 78.3587 246.897 78.3587H449.987C455.752 78.3587 461.28 76.0687 465.357 71.9923C469.433 67.9159 471.723 62.3871 471.723 56.6223C471.723 50.8574 469.433 45.3286 465.357 41.2522C461.28 37.1758 455.752 34.8857 449.987 34.8857H246.897Z" fill="white"/>
<path d="M120.308 158.837C144.88 158.837 164.798 138.919 164.798 114.347C164.798 89.7763 144.88 69.8574 120.308 69.8574C95.7372 69.8574 75.8184 89.7763 75.8184 114.347C75.8184 138.919 95.7372 158.837 120.308 158.837Z" fill="#9E616A"/>
<path d="M108.923 156.658C108.733 156.24 108.543 155.82 108.354 155.398C108.427 155.398 108.499 155.411 108.572 155.413L108.923 156.658Z" fill="#2F2E41"/>
<path d="M74.5815 71.8806C76.8315 70.0806 79.4615 68.4336 82.3385 68.5266C85.2155 68.6196 88.1325 71.2176 87.5385 74.0336C92.8228 64.6773 101.234 57.4812 111.295 53.7084C121.357 49.9357 132.425 49.8274 142.558 53.4026C149.708 55.9256 156.721 60.9726 158.359 68.3746C158.781 70.2746 158.87 72.3586 160.058 73.9016C161.558 75.8466 164.416 76.2876 166.773 75.6016L166.844 75.5806C167.243 75.4435 167.673 75.4294 168.079 75.5399C168.486 75.6505 168.849 75.8807 169.123 76.2006C169.397 76.5205 169.568 76.9153 169.615 77.3339C169.662 77.7524 169.581 78.1752 169.385 78.5476L167.361 82.3206C169.912 82.8891 172.562 82.8328 175.085 82.1566C175.505 82.0466 175.948 82.069 176.354 82.2208C176.76 82.3726 177.109 82.6462 177.353 83.0042C177.597 83.3622 177.725 83.787 177.718 84.2203C177.711 84.6536 177.571 85.0743 177.316 85.4246C173.953 90.0238 169.563 93.7747 164.495 96.3787C159.428 98.9828 153.823 100.368 148.126 100.425C140.042 100.376 131.874 97.5896 124.007 99.4486C120.963 100.168 118.119 101.559 115.683 103.522C113.247 105.484 111.281 107.966 109.93 110.787C108.579 113.608 107.876 116.696 107.874 119.824C107.872 122.952 108.571 126.041 109.918 128.864C107.501 126.22 102.829 126.846 100.357 129.438C97.8855 132.03 97.2455 135.898 97.4945 139.472C97.8755 144.937 100.016 150.087 102.273 155.099C83.3475 154.499 65.4475 141.227 59.4215 123.271C53.3715 105.239 59.7135 83.7416 74.5815 71.8806Z" fill="#2F2E41"/>
<path opacity="0.2" d="M44.7793 247.955L57.2583 315.848L64.7453 316.5L44.7793 247.955Z" fill="black"/>
<path opacity="0.2" d="M182.233 242.834L169.755 315.799L162.268 316.499L182.233 242.834Z" fill="black"/>
<path d="M85.2249 49.0313C84.6667 49.2715 84.0651 49.3944 83.4575 49.3925C82.8498 49.3905 82.249 49.2637 81.6924 49.0199C81.1358 48.7761 80.6353 48.4205 80.2218 47.9752C79.8083 47.5299 79.4908 47.0044 79.2889 46.4313C79.0183 45.8763 78.8648 45.2715 78.838 44.6546C78.8112 44.0376 78.9117 43.4218 79.1332 42.8454C79.3546 42.269 79.6923 41.7444 80.1253 41.3041C80.5583 40.8638 81.0772 40.5174 81.6498 40.2863C82.7951 39.8835 84.0514 39.9364 85.1587 40.4339C86.2661 40.9315 87.1398 41.8358 87.599 42.9596C88.0583 44.0834 88.068 45.3407 87.626 46.4714C87.1841 47.6022 86.3244 48.5197 85.2249 49.0343V49.0313ZM80.6418 35.2723L78.7419 36.0663C78.2666 36.2626 77.7349 36.2733 77.2521 36.0962C76.7693 35.9192 76.3706 35.5673 76.1349 35.1103L76.0409 34.9263C73.9939 31.2343 73.7598 26.7483 75.3478 21.5983C76.8188 16.9783 77.4308 13.7293 76.2018 10.7863C74.7808 7.3863 71.7458 6.3173 67.8768 7.8613C66.3768 8.4883 65.8988 8.47831 64.7168 9.64931C64.4601 9.90763 64.154 10.1116 63.8167 10.249C63.4795 10.3865 63.118 10.4546 62.7538 10.4493C62.4019 10.4451 62.0544 10.3701 61.7321 10.2287C61.4098 10.0873 61.1193 9.88242 60.8779 9.62631C60.4125 9.13284 60.1518 8.48113 60.1485 7.80286C60.1451 7.12458 60.3994 6.47033 60.8599 5.9723C62.8452 3.89447 65.2395 2.25057 67.8918 1.1443C76.2058 -2.3277 80.3919 2.7983 82.3069 7.3853C84.1799 11.8713 83.1269 16.0343 81.4329 21.4253C80.0139 25.9053 80.0969 29.2253 81.7089 32.5253C81.8253 32.7748 81.89 33.0453 81.8993 33.3204C81.9086 33.5956 81.8621 33.8698 81.7627 34.1266C81.6633 34.3833 81.5131 34.6174 81.321 34.8146C81.1289 35.0118 80.8989 35.1682 80.6448 35.2743L80.6418 35.2723Z" fill="#123C69"/>
<path d="M291.757 69.6189H251.35C251.092 69.6189 250.845 69.5163 250.662 69.3337C250.48 69.1512 250.377 68.9035 250.377 68.6454C250.377 68.3872 250.48 68.1396 250.662 67.957C250.845 67.7744 251.092 67.6719 251.35 67.6719H291.757C292.016 67.6719 292.263 67.7744 292.446 67.957C292.628 68.1396 292.731 68.3872 292.731 68.6454C292.731 68.9035 292.628 69.1512 292.446 69.3337C292.263 69.5163 292.016 69.6189 291.757 69.6189Z" fill="#123C69"/>
<path d="M343.015 69.9431H302.608C302.35 69.9431 302.102 69.8405 301.92 69.658C301.737 69.4754 301.635 69.2278 301.635 68.9696C301.635 68.7114 301.737 68.4638 301.92 68.2812C302.102 68.0987 302.35 67.9961 302.608 67.9961H343.015C343.273 67.9961 343.521 68.0987 343.704 68.2812C343.886 68.4638 343.989 68.7114 343.989 68.9696C343.989 69.2278 343.886 69.4754 343.704 69.658C343.521 69.8405 343.273 69.9431 343.015 69.9431Z" fill="#123C69"/>
<path d="M394.275 70.2683H353.868C353.61 70.2683 353.362 70.1657 353.18 69.9832C352.997 69.8006 352.895 69.553 352.895 69.2948C352.895 69.0366 352.997 68.789 353.18 68.6064C353.362 68.4238 353.61 68.3213 353.868 68.3213H394.275C394.533 68.3213 394.781 68.4238 394.963 68.6064C395.146 68.789 395.249 69.0366 395.249 69.2948C395.249 69.553 395.146 69.8006 394.963 69.9832C394.781 70.1657 394.533 70.2683 394.275 70.2683Z" fill="#123C69"/>
<path d="M445.531 70.5925H405.124C404.866 70.5925 404.618 70.4899 404.436 70.3074C404.253 70.1248 404.15 69.8772 404.15 69.619C404.15 69.3608 404.253 69.1132 404.436 68.9306C404.618 68.7481 404.866 68.6455 405.124 68.6455H445.531C445.789 68.6455 446.037 68.7481 446.219 68.9306C446.402 69.1132 446.504 69.3608 446.504 69.619C446.504 69.8772 446.402 70.1248 446.219 70.3074C446.037 70.4899 445.789 70.5925 445.531 70.5925Z" fill="#123C69"/>
<path d="M271.465 60.6616C275.613 60.6616 278.975 57.2993 278.975 53.1516C278.975 49.0039 275.613 45.6416 271.465 45.6416C267.317 45.6416 263.955 49.0039 263.955 53.1516C263.955 57.2993 267.317 60.6616 271.465 60.6616Z" fill="#123C69"/>
<path d="M323.033 60.6616C327.181 60.6616 330.543 57.2993 330.543 53.1516C330.543 49.0039 327.181 45.6416 323.033 45.6416C318.886 45.6416 315.523 49.0039 315.523 53.1516C315.523 57.2993 318.886 60.6616 323.033 60.6616Z" fill="#123C69"/>
<path d="M374.602 60.6616C378.749 60.6616 382.112 57.2993 382.112 53.1516C382.112 49.0039 378.749 45.6416 374.602 45.6416C370.454 45.6416 367.092 49.0039 367.092 53.1516C367.092 57.2993 370.454 60.6616 374.602 60.6616Z" fill="#123C69"/>
<path d="M426.17 60.6616C430.318 60.6616 433.68 57.2993 433.68 53.1516C433.68 49.0039 430.318 45.6416 426.17 45.6416C422.022 45.6416 418.66 49.0039 418.66 53.1516C418.66 57.2993 422.022 60.6616 426.17 60.6616Z" fill="#123C69"/>
</svg>
