<svg width="280" height="203" viewBox="0 0 280 203" fill="none" xmlns="http://www.w3.org/2000/svg">
<path d="M178.391 152.082V200.982H56.4187C42.5187 200.982 31.2188 190.013 31.2188 176.531C31.2188 163.049 42.5257 152.08 56.4187 152.08L178.391 152.082Z" fill="#F2F2F2"/>
<path d="M181.386 200.61C181.387 201.108 181.19 201.585 180.839 201.938C180.488 202.291 180.011 202.49 179.514 202.491H54.2446C47.4105 202.491 40.8563 199.776 36.0238 194.944C31.1914 190.111 28.4766 183.557 28.4766 176.723C28.4766 169.889 31.1914 163.335 36.0238 158.502C40.8563 153.67 47.4105 150.955 54.2446 150.955H179.513C180.011 150.955 180.49 151.153 180.843 151.506C181.195 151.859 181.394 152.337 181.394 152.836C181.394 153.335 181.195 153.813 180.843 154.166C180.49 154.519 180.011 154.717 179.513 154.717H54.2446C48.4082 154.717 42.8109 157.036 38.684 161.162C34.5571 165.289 32.2386 170.887 32.2386 176.723C32.2386 182.559 34.5571 188.157 38.684 192.284C42.8109 196.411 48.4082 198.729 54.2446 198.729H179.513C180.01 198.73 180.487 198.929 180.838 199.282C181.19 199.635 181.386 200.112 181.386 200.61Z" fill="#6C63FF"/>
<path d="M178.391 163.371H47.3174C47.2177 163.371 47.1221 163.331 47.0515 163.261C46.981 163.19 46.9414 163.095 46.9414 162.995C46.9414 162.895 46.981 162.8 47.0515 162.729C47.1221 162.659 47.2177 162.619 47.3174 162.619H178.391C178.491 162.619 178.587 162.659 178.657 162.729C178.728 162.8 178.767 162.895 178.767 162.995C178.767 163.095 178.728 163.19 178.657 163.261C178.587 163.331 178.491 163.371 178.391 163.371Z" fill="#CCCCCC"/>
<path d="M178.391 172.398H47.3174C47.2177 172.398 47.1221 172.359 47.0515 172.288C46.981 172.218 46.9414 172.122 46.9414 172.022C46.9414 171.923 46.981 171.827 47.0515 171.757C47.1221 171.686 47.2177 171.646 47.3174 171.646H178.391C178.491 171.646 178.587 171.686 178.657 171.757C178.728 171.827 178.767 171.923 178.767 172.022C178.767 172.122 178.728 172.218 178.657 172.288C178.587 172.359 178.491 172.398 178.391 172.398Z" fill="#CCCCCC"/>
<path d="M178.391 181.428H47.3174C47.2177 181.428 47.1221 181.388 47.0515 181.318C46.981 181.247 46.9414 181.151 46.9414 181.052C46.9414 180.952 46.981 180.856 47.0515 180.786C47.1221 180.715 47.2177 180.676 47.3174 180.676H178.391C178.491 180.676 178.587 180.715 178.657 180.786C178.728 180.856 178.767 180.952 178.767 181.052C178.767 181.151 178.728 181.247 178.657 181.318C178.587 181.388 178.491 181.428 178.391 181.428Z" fill="#CCCCCC"/>
<path d="M178.391 190.455H47.3174C47.2177 190.455 47.1221 190.415 47.0515 190.345C46.981 190.274 46.9414 190.179 46.9414 190.079C46.9414 189.979 46.981 189.884 47.0515 189.813C47.1221 189.743 47.2177 189.703 47.3174 189.703H178.391C178.491 189.703 178.587 189.743 178.657 189.813C178.728 189.884 178.767 189.979 178.767 190.079C178.767 190.179 178.728 190.274 178.657 190.345C178.587 190.415 178.491 190.455 178.391 190.455Z" fill="#CCCCCC"/>
<path d="M272.656 161.288L242.11 199.367L147.132 122.496C136.311 113.738 134.358 98.0702 142.779 87.5722C151.2 77.0742 166.856 75.6582 177.679 84.4172L272.656 161.288Z" fill="#F2F2F2"/>
<path d="M244.681 200.961C244.527 201.153 244.337 201.313 244.121 201.431C243.905 201.549 243.668 201.624 243.423 201.65C243.179 201.677 242.931 201.655 242.695 201.585C242.459 201.516 242.239 201.4 242.048 201.246L144.504 122.297C139.203 117.994 135.819 111.769 135.092 104.981C134.365 98.1923 136.354 91.3919 140.624 86.0646C142.73 83.4312 145.336 81.2402 148.292 79.6178C151.248 77.9954 154.495 76.9735 157.848 76.6111C161.2 76.2486 164.591 76.5527 167.826 77.5058C171.06 78.4589 174.074 80.0422 176.695 82.1646L274.239 161.113C274.626 161.427 274.872 161.881 274.925 162.377C274.978 162.872 274.833 163.369 274.522 163.758C274.368 163.95 274.178 164.11 273.962 164.228C273.746 164.347 273.509 164.421 273.264 164.448C273.02 164.474 272.772 164.452 272.536 164.383C272.3 164.313 272.08 164.197 271.889 164.043L174.344 85.0956C172.106 83.2838 169.532 81.9322 166.771 81.1187C164.009 80.3051 161.114 80.0455 158.251 80.3549C155.389 80.6642 152.616 81.5365 150.092 82.9214C147.568 84.3063 145.342 86.1766 143.544 88.4246C139.897 92.9743 138.199 98.782 138.82 104.579C139.441 110.377 142.33 115.693 146.858 119.368L244.402 198.317C244.788 198.631 245.035 199.085 245.088 199.58C245.142 200.075 244.997 200.572 244.686 200.961H244.681Z" fill="#CCCCCC"/>
<path d="M265.606 170.075L163.544 87.4684C163.467 87.4057 163.417 87.3148 163.406 87.2157C163.396 87.1165 163.425 87.0172 163.487 86.9394C163.518 86.9008 163.556 86.8688 163.599 86.845C163.642 86.8212 163.69 86.8063 163.739 86.801C163.788 86.7957 163.837 86.8001 163.885 86.8141C163.932 86.8281 163.976 86.8513 164.014 86.8824L266.078 169.489C266.156 169.552 266.205 169.643 266.216 169.742C266.227 169.841 266.198 169.941 266.135 170.018C266.104 170.057 266.066 170.089 266.023 170.113C265.98 170.137 265.933 170.151 265.884 170.157C265.835 170.162 265.785 170.158 265.738 170.144C265.69 170.13 265.646 170.106 265.608 170.075H265.606Z" fill="#CCCCCC"/>
<path d="M259.97 177.104L157.906 94.4957C157.828 94.433 157.778 94.3421 157.768 94.243C157.757 94.1439 157.786 94.0445 157.849 93.9667C157.879 93.9282 157.917 93.8961 157.96 93.8723C158.004 93.8486 158.051 93.8336 158.1 93.8283C158.149 93.823 158.199 93.8275 158.246 93.8415C158.293 93.8555 158.337 93.8786 158.376 93.9097L260.44 176.517C260.517 176.579 260.567 176.67 260.577 176.769C260.588 176.869 260.559 176.968 260.497 177.046C260.466 177.084 260.428 177.116 260.385 177.14C260.341 177.164 260.294 177.179 260.245 177.184C260.196 177.189 260.146 177.185 260.099 177.171C260.052 177.157 260.008 177.135 259.97 177.104Z" fill="#CCCCCC"/>
<path d="M254.331 184.134L152.267 101.527C152.189 101.464 152.14 101.373 152.129 101.274C152.118 101.175 152.147 101.076 152.21 100.998C152.241 100.959 152.279 100.927 152.322 100.904C152.365 100.88 152.412 100.865 152.461 100.86C152.51 100.854 152.56 100.859 152.607 100.873C152.655 100.887 152.699 100.91 152.737 100.941L254.801 183.548C254.878 183.611 254.928 183.702 254.939 183.801C254.949 183.9 254.92 183.999 254.858 184.077C254.827 184.116 254.789 184.148 254.746 184.171C254.703 184.195 254.655 184.21 254.606 184.215C254.557 184.221 254.508 184.216 254.46 184.202C254.413 184.188 254.369 184.165 254.331 184.134Z" fill="#CCCCCC"/>
<path d="M248.69 191.165L146.626 108.558C146.549 108.496 146.499 108.405 146.488 108.306C146.478 108.206 146.507 108.107 146.569 108.029C146.6 107.991 146.638 107.959 146.681 107.935C146.724 107.911 146.772 107.896 146.821 107.891C146.87 107.886 146.919 107.89 146.967 107.904C147.014 107.918 147.058 107.941 147.096 107.972L249.162 190.579C249.24 190.642 249.289 190.733 249.3 190.832C249.311 190.931 249.282 191.03 249.219 191.108C249.188 191.147 249.15 191.179 249.107 191.203C249.064 191.226 249.017 191.241 248.968 191.247C248.919 191.252 248.869 191.247 248.822 191.233C248.774 191.22 248.73 191.196 248.692 191.165H248.69Z" fill="#CCCCCC"/>
<path d="M279.087 202.869H1.21194C1.11222 202.869 1.01659 202.83 0.946075 202.759C0.875562 202.689 0.835938 202.593 0.835938 202.493C0.835938 202.393 0.875562 202.298 0.946075 202.227C1.01659 202.157 1.11222 202.117 1.21194 202.117H279.087C279.187 202.117 279.282 202.157 279.353 202.227C279.423 202.298 279.463 202.393 279.463 202.493C279.463 202.593 279.423 202.689 279.353 202.759C279.282 202.83 279.187 202.869 279.087 202.869Z" fill="#CCCCCC"/>
<path d="M127.446 146.942H123.165L121.129 130.354H127.448L127.446 146.942Z" fill="#FFB8B8"/>
<path d="M120.108 145.713H128.365V150.935H114.908C114.907 150.251 115.04 149.573 115.3 148.94C115.561 148.307 115.944 147.732 116.426 147.247C116.909 146.762 117.483 146.377 118.115 146.113C118.746 145.85 119.424 145.714 120.108 145.713Z" fill="#2F2E41"/>
<path d="M83.7076 146.942H79.4266L77.3906 130.354H83.7096L83.7076 146.942Z" fill="#FFB8B8"/>
<path d="M76.362 145.713H84.619V150.935H71.168C71.1664 150.251 71.2997 149.573 71.5602 148.94C71.8207 148.307 72.2033 147.732 72.6862 147.247C73.1691 146.762 73.7428 146.377 74.3745 146.113C75.0062 145.85 75.6836 145.714 76.368 145.713H76.362Z" fill="#2F2E41"/>
<path d="M98.0079 23.8978V22.0168C98.0036 20.4269 98.3128 18.8518 98.9176 17.3815C99.5224 15.9112 100.411 14.5745 101.533 13.4478C102.654 12.3212 103.987 11.4266 105.455 10.8152C106.922 10.2038 108.496 9.88765 110.086 9.88477C111.676 9.88778 113.249 10.204 114.717 10.8155C116.184 11.4269 117.517 12.3215 118.638 13.4482C119.76 14.5749 120.648 15.9115 121.253 17.3818C121.858 18.852 122.167 20.427 122.163 22.0168V23.8978C122.168 26.2121 121.253 28.4337 119.621 30.0739C117.988 31.7141 115.77 32.6385 113.456 32.6438H106.715C104.4 32.6385 102.183 31.7141 100.55 30.0739C98.9173 28.4337 98.0028 26.2121 98.0079 23.8978Z" fill="#2F2E41"/>
<path d="M110.085 33.2905C115.165 33.2905 119.283 29.1541 119.283 24.0515C119.283 18.9489 115.165 14.8125 110.085 14.8125C105.005 14.8125 100.887 18.9489 100.887 24.0515C100.887 29.1541 105.005 33.2905 110.085 33.2905Z" fill="#FFB8B8"/>
<path d="M60.0551 55.8076C60.4276 55.4533 60.8736 55.1854 61.3613 55.023C61.8491 54.8606 62.3666 54.8076 62.8772 54.8679C63.3877 54.9281 63.8787 55.1001 64.3153 55.3716C64.7518 55.643 65.1232 56.0073 65.4031 56.4385L73.2881 54.9385L75.3631 59.5295L64.1981 61.4905C63.4454 61.9171 62.5621 62.0516 61.7167 61.8684C60.8712 61.6853 60.1227 61.1973 59.6141 60.4976C59.1032 59.7964 58.8661 58.9328 58.9473 58.0691C59.0285 57.2054 59.4224 56.4012 60.0551 55.8076Z" fill="#FFB8B8"/>
<path d="M102.913 39.1119L103.013 39.2689L90.0832 47.8249L68.2662 54.8249C67.9771 54.9197 67.7297 55.1114 67.5657 55.3676C67.4017 55.6238 67.3312 55.9287 67.3662 56.2309L67.8422 60.3489C67.8629 60.5307 67.9213 60.7062 68.0138 60.864C68.1063 61.0219 68.2308 61.1587 68.3794 61.2656C68.5279 61.3725 68.6971 61.4471 68.8762 61.4847C69.0553 61.5223 69.2402 61.5221 69.4192 61.4839L89.9522 57.0629C90.9466 56.85 91.8865 56.4343 92.7132 55.8419L107.239 45.4609C107.768 45.0822 108.189 44.573 108.462 43.983C108.735 43.393 108.85 42.7423 108.797 42.0944C108.743 41.4465 108.523 40.8236 108.157 40.2863C107.791 39.749 107.292 39.3158 106.708 39.0289C106.125 38.7438 105.478 38.616 104.831 38.6583C104.183 38.7006 103.558 38.9114 103.017 39.2699L102.913 39.1119Z" fill="#CCCCCC"/>
<path d="M123.244 142.234C122.915 142.234 122.593 142.138 122.318 141.958C122.042 141.777 121.826 141.52 121.694 141.218L102.067 92.5035C102.022 92.3979 101.945 92.3089 101.847 92.2485C101.749 92.1881 101.635 92.1593 101.52 92.1658C101.406 92.1723 101.295 92.214 101.205 92.2851C101.115 92.3563 101.049 92.4534 101.015 92.5635L85.0023 139.988C84.9354 140.208 84.8242 140.412 84.6754 140.588C84.5267 140.763 84.3437 140.906 84.1375 141.008C83.9314 141.11 83.7066 141.169 83.477 141.181C83.2473 141.192 83.0177 141.157 82.8022 141.076L77.4322 139.053C77.1402 138.944 76.8842 138.756 76.6927 138.51C76.5012 138.264 76.3816 137.969 76.3473 137.659C73.9313 116.521 94.9972 63.1655 95.2102 62.6295L95.2692 62.4805L114.469 66.7475L114.509 66.7915C122.17 75.1915 128.468 128.138 129.652 138.668C129.697 139.048 129.611 139.432 129.409 139.757C129.207 140.081 128.9 140.327 128.539 140.454L123.799 142.138C123.621 142.202 123.433 142.234 123.244 142.234Z" fill="#2F2E41"/>
<path d="M106.697 68.4662C102.044 68.4662 96.8575 67.5342 95.2615 63.6882L95.2245 63.6002L95.2745 63.5182C96.5345 61.4412 98.2005 57.8982 97.3055 57.2332C95.5415 55.9232 94.6865 53.7682 94.7625 50.8332C94.8875 47.6596 95.9894 44.6021 97.9176 42.0783C99.8458 39.5546 102.506 37.6879 105.535 36.7332C107.288 36.17 109.071 35.709 110.876 35.3522C112.193 35.0855 113.553 35.1149 114.857 35.4384C116.161 35.7618 117.377 36.3711 118.416 37.2222C119.472 38.0818 120.325 39.1639 120.913 40.3913C121.502 41.6187 121.813 42.961 121.822 44.3222C121.888 51.1422 120.842 60.6422 115.488 67.1632C115.238 67.4655 114.889 67.6695 114.502 67.7392C111.926 68.2052 109.315 68.4485 106.697 68.4662Z" fill="#CCCCCC"/>
<path d="M104.966 68.2097C105.216 67.299 105.817 66.5243 106.636 66.0546C107.456 65.585 108.428 65.4585 109.34 65.7027C109.526 65.7544 109.707 65.8212 109.882 65.9027L115.869 60.4297L120.033 63.2477L111.471 70.8577C111.086 71.5568 110.478 72.1066 109.744 72.4193C109.01 72.7321 108.193 72.7896 107.422 72.5827C106.973 72.4579 106.553 72.2456 106.186 71.9578C105.819 71.6701 105.513 71.3126 105.284 70.9059C105.056 70.4993 104.911 70.0516 104.856 69.5885C104.802 69.1254 104.839 68.6561 104.967 68.2077L104.966 68.2097Z" fill="#FFB8B8"/>
<path d="M114.919 68.2796C114.53 68.2798 114.154 68.1447 113.853 67.8976L111.492 65.9596C111.296 65.7972 111.138 65.5928 111.032 65.3614C110.925 65.13 110.871 64.8776 110.875 64.6227C110.879 64.3679 110.94 64.1172 111.054 63.8892C111.168 63.6612 111.332 63.4618 111.533 63.3056L121.433 55.6765C121.551 55.5854 121.628 55.4517 121.648 55.3043C121.667 55.1569 121.628 55.0076 121.539 54.8886L115.427 46.7726C114.717 45.8316 114.361 44.6705 114.422 43.4931C114.482 42.3158 114.956 41.1975 115.759 40.3346C116.603 39.4171 117.762 38.852 119.004 38.7522C120.246 38.6525 121.48 39.0255 122.459 39.7966L122.498 39.8376L128.88 49.0176C129.571 49.5629 130.127 50.26 130.505 51.0548C130.883 51.8497 131.073 52.7209 131.06 53.6009C131.047 54.4809 130.831 55.3461 130.43 56.1294C130.028 56.9126 129.452 57.593 128.745 58.1176L115.92 67.9506C115.63 68.1645 115.28 68.2799 114.919 68.2796Z" fill="#CCCCCC"/>
<path d="M101.938 21.4529V16.8689L110.085 13.2949L117.853 16.8689V21.4529C117.854 21.6519 117.775 21.8429 117.635 21.9839C117.494 22.1249 117.304 22.2044 117.105 22.2049H102.686C102.487 22.2044 102.297 22.1249 102.156 21.9839C102.016 21.8429 101.937 21.6519 101.938 21.4529Z" fill="#2F2E41"/>
<path d="M109.71 10.4954C108.51 6.64442 111.028 2.23043 114.747 0.705429C118.466 -0.819571 122.916 0.246427 126.054 2.76543C129.121 5.42905 131.263 8.99742 132.171 12.9564C133.065 16.8953 133.541 20.9176 133.589 24.9564C135.328 25.2692 136.916 26.1449 138.109 27.4486C139.302 28.7523 140.033 30.4118 140.19 32.1718C140.348 33.9318 139.922 35.6947 138.979 37.1892C138.037 38.6837 136.629 39.827 134.973 40.4432C133.317 41.0594 131.504 41.1142 129.814 40.5994C128.124 40.0846 126.649 39.0286 125.618 37.5938C124.587 36.1591 124.055 34.4252 124.106 32.6589C124.156 30.8927 124.786 29.1919 125.897 27.8184C127.28 26.0982 128.051 23.9674 128.091 21.7609C128.13 19.5544 127.436 17.3972 126.116 15.6284C124.802 13.8634 122.935 12.5893 120.812 12.0094C118.689 11.4294 116.433 11.5769 114.404 12.4284C112.154 13.3704 109.328 10.9124 109.71 10.4954Z" fill="#2F2E41"/>
</svg>
